<?xml version="1.0" encoding="UTF-8"?>
<svg version="1.1" xmlns="http://www.w3.org/2000/svg" width="500" height="500">
<path d="M0 0 C0.66 0.33 1.32 0.66 2 1 C1.38253906 2.00675781 0.76507813 3.01351563 0.12890625 4.05078125 C-9.87158875 20.56313397 -18.0584445 37.27974057 -23 56 C-23.17789063 56.67063477 -23.35578125 57.34126953 -23.5390625 58.03222656 C-30.90259109 87.12108653 -24.03519087 116.37826245 -9.28320312 141.89550781 C3.10814541 162.21769661 24.97333574 175.68929266 47.72265625 181.2734375 C48.80417969 181.51320313 49.88570313 181.75296875 51 182 C51.82371094 182.18433594 52.64742188 182.36867188 53.49609375 182.55859375 C77.50087129 186.7903252 102.54164769 181.53704974 125 173 C124.03400879 173.01571045 123.06801758 173.0314209 122.07275391 173.04760742 C93.91206377 173.46466567 68.55164543 172.42494073 43 159 C43 158.34 43 157.68 43 157 C44.3096875 157.15726563 45.619375 157.31453125 46.96875 157.4765625 C88.6101332 161.58513999 130.72445121 154.21656582 164.0078125 127.5390625 C168.78922497 123.48172816 173.43493804 119.29975776 178 115 C177.50822266 115.24121582 177.01644531 115.48243164 176.50976562 115.73095703 C157.19756052 125.1584332 136.16847922 135.1072938 114.19140625 135.1328125 C113.11439453 135.13410156 112.03738281 135.13539063 110.92773438 135.13671875 C109.26194336 135.13091797 109.26194336 135.13091797 107.5625 135.125 C106.45583984 135.12886719 105.34917969 135.13273438 104.20898438 135.13671875 C93.05523212 135.12338492 93.05523212 135.12338492 88 134 C87.67 133.34 87.34 132.68 87 132 C87.80497925 131.82778931 87.80497925 131.82778931 88.6262207 131.65209961 C117.75797816 125.32099148 145.01141282 113.99229165 169.1875 96.3125 C185.96521462 84.23607144 205.86773633 76.98361813 226 73 C226.93714844 72.80792969 227.87429688 72.61585938 228.83984375 72.41796875 C243.26935061 70.50949256 257.11536651 71.95167009 271 76 C272.33157453 76.34029127 273.66392082 76.67784893 275 77 C258.2742806 68.07292938 242.08507415 63.59185979 223 63.6875 C221.23450806 63.69487183 221.23450806 63.69487183 219.43334961 63.70239258 C209.068617 63.83970645 199.14074618 64.89188039 189 67 C188.21173828 67.16097168 187.42347656 67.32194336 186.61132812 67.48779297 C163.69665535 72.32440577 142.571158 81.51089591 121.37786865 91.1986084 C107.47751585 97.54471149 93.60711988 103.43603267 79 108 C77.18242187 108.59167969 77.18242187 108.59167969 75.328125 109.1953125 C58.40114919 113.77798156 38.08470163 113.00681346 22 106 C21.04222656 105.61585938 20.08445313 105.23171875 19.09765625 104.8359375 C9.47504652 100.58173109 3.95414578 94.11153236 -0.08984375 84.515625 C-4.13883112 73.32443245 -3.20094714 58.08151076 1 47 C2.60546875 45.15234375 2.60546875 45.15234375 4 44 C5.08545789 47.25637368 4.86326614 47.86571369 4 51 C2.99958447 64.23276909 3.15739495 76.84878783 11.15625 87.96484375 C19.82176752 97.52995949 34.42912365 100.45821403 46.76953125 101.23828125 C73.99308874 102.00329085 97.93464196 89.5786843 121.85961914 77.85351562 C147.41470733 65.41600189 172.99073498 56.67508752 201 52 C202.07121094 51.80664062 203.14242187 51.61328125 204.24609375 51.4140625 C234.39178895 48.08893899 266.12865919 52.75141926 290.59765625 71.72265625 C315.43415741 91.82406837 330.17935253 120.51206546 334.40234375 152 C335.05896736 158.33237015 335.1107364 164.63880915 335 171 C334.34 171 333.68 171 333 171 C332.68289063 170.13761719 332.36578125 169.27523437 332.0390625 168.38671875 C326.45360778 153.77504575 319.93032981 138.43764469 309 127 C308.45085937 126.4225 307.90171875 125.845 307.3359375 125.25 C298.56890461 116.94001622 287.63734387 114.59631305 275.94140625 114.73046875 C249.83634202 116.51565154 225.34327823 134.15293248 206.9375 151.6875 C172.04568198 184.62957566 124.53867051 206.60975499 76.11987305 206.0690918 C48.01093785 205.15295352 22.31032186 194.45980586 2 175 C0.98486328 174.07960938 0.98486328 174.07960938 -0.05078125 173.140625 C-21.20510785 153.30049504 -36.09239005 120.78388256 -37.07080078 91.91064453 C-37.82702557 61.80781415 -29.56327791 31.1850017 -8.625 8.75 C-6.77332779 6.80741957 -4.89520441 4.90089571 -3 3 C-2.38898438 2.38640625 -1.77796875 1.7728125 -1.1484375 1.140625 C-0.57996094 0.57601563 -0.57996094 0.57601563 0 0 Z " fill="#1E4181" transform="translate(101,256)"/>
<path d="M0 0 C5.97643933 13.43940419 7.52718348 26.4731201 8 41 C11.38672739 39.87109087 11.75239171 39.2708534 13.6875 36.4375 C23.52387662 22.97845784 36.88665351 14.83914785 53 11 C56.44140625 10.875 56.44140625 10.875 59 11 C59.64789946 30.12050979 57.71898309 44.76547675 49 62 C49.70640625 62.05800781 50.4128125 62.11601563 51.140625 62.17578125 C54.91736768 63.26443249 57.08093311 65.43938182 59.75 68.1875 C60.27150635 68.71851318 60.7930127 69.24952637 61.33032227 69.79663086 C76.82879019 86.11567566 85.27014994 107.98075305 85.0625 130.375 C85.05798828 131.30183594 85.05347656 132.22867188 85.04882812 133.18359375 C85.03711574 135.45579709 85.02071372 137.72786388 85 140 C82.84338089 137.23801412 81.07856481 134.43344676 79.375 131.375 C68.43804516 113.01171779 50.34013733 100.72365181 30 95 C20.49989748 92.79833759 10.72340685 91.62109868 1 91 C7.20908154 86.86061231 13.68229096 86.63982892 20.9375 86.375 C21.81212891 86.33632812 22.68675781 86.29765625 23.58789062 86.2578125 C25.72494631 86.1643893 27.86244294 86.08114602 30 86 C15.09826899 80.4110497 1.24362089 82.43914015 -12.96630859 88.89306641 C-21.80943355 93.14758962 -29.93423999 98.4293299 -38 104 C-76.33228322 130.09075088 -76.33228322 130.09075088 -100.00390625 126.55078125 C-102.35031652 126.08016411 -104.67729565 125.57553736 -107 125 C-103.46042393 130.25181002 -100.20543743 133.01462623 -94.0078125 134.50390625 C-78.43409614 137.07255817 -63.85577928 135.21983759 -48.4609375 132.52734375 C-47.69463516 132.39373947 -46.92833282 132.26013519 -46.1388092 132.1224823 C-42.25548651 131.44295566 -38.37539534 130.7497775 -34.4987793 130.03295898 C-17.08139731 126.86881521 -3.59916968 127.26869133 11.75 136.6875 C16.59784929 141.67001177 20.62738676 147.9203484 21 155 C18.40443867 152.99770983 16.03697265 151.04014173 13.8125 148.625 C5.30367963 140.68343432 -4.88405969 136.89321131 -16.5625 137.046875 C-19.39743591 137.27420477 -22.18892679 137.57267568 -25 138 C-24.071875 138.5775 -23.14375 139.155 -22.1875 139.75 C-17.45454545 143.09090909 -17.45454545 143.09090909 -16 146 C-15.48343058 150.57532918 -15.51673531 152.94942458 -17.4375 157.125 C-27.14675032 168.01830523 -42.66201834 171.26130215 -56.08203125 175.65625 C-58.3255459 176.39224307 -60.56892766 177.12863718 -62.81213379 177.86557007 C-64.35456238 178.3720267 -65.89728771 178.87758047 -67.44030762 179.38223267 C-80.78897314 183.75975931 -93.84931627 188.70763687 -106.83056641 194.07470703 C-107.49484146 194.34563675 -108.15911652 194.61656647 -108.84352112 194.89570618 C-110.63266187 195.62627306 -112.41722032 196.3680337 -114.20141602 197.1105957 C-117 198 -117 198 -120 197 C-113.35951038 192.14468445 -106.61563003 187.90779711 -99.3125 184.125 C-97.83233398 183.35518799 -97.83233398 183.35518799 -96.32226562 182.56982422 C-86.66182484 177.65242125 -76.70060561 173.7190918 -66.54882812 169.94775391 C-47.86911849 163.87714595 -47.86911849 163.87714595 -33 152 C-32.58013054 149.28836222 -32.58013054 149.28836222 -33 147 C-38.82053764 144.00273945 -43.50626803 143.55971954 -50 143.6875 C-50.92627197 143.69587891 -51.85254395 143.70425781 -52.80688477 143.71289062 C-59.49626596 143.82863388 -65.90253496 144.539454 -72.515625 145.54296875 C-83.81489933 147.02504846 -95.11025495 146.5724604 -105.375 141.25 C-111.01524901 136.41550085 -115.32988955 131.68445136 -116.4140625 124.10546875 C-116.48367187 123.14253906 -116.55328125 122.17960937 -116.625 121.1875 C-116.69976562 120.21167969 -116.77453125 119.23585938 -116.8515625 118.23046875 C-116.92503906 117.12638672 -116.92503906 117.12638672 -117 116 C-115.88882813 115.82984375 -114.77765625 115.6596875 -113.6328125 115.484375 C-96.81138682 112.7968835 -84.64938172 107.92930826 -74 94 C-71.47991379 90.50086076 -69.01602485 86.96245903 -66.54589844 83.42797852 C-58.03156077 71.28455712 -48.80505844 59.86212679 -36 52 C-35.34 52 -34.68 52 -34 52 C-33.95875 50.824375 -33.9175 49.64875 -33.875 48.4375 C-31.87168626 30.98397207 -19.93355946 14.26231557 -6.87890625 3.203125 C-2.55108848 0 -2.55108848 0 0 0 Z M-48 81 C-51.56056995 84.66478176 -53.17840902 87.95802586 -54 93 C-52.24503078 92.2617026 -50.49619468 91.50881758 -48.75 90.75 C-47.77546875 90.33234375 -46.8009375 89.9146875 -45.796875 89.484375 C-42.90021989 87.94704407 -41.0717149 86.53209599 -39 84 C-38.19234122 80.35278304 -38.19234122 80.35278304 -38 77 C-41.74096348 77 -44.92854851 78.98766971 -48 81 Z " fill="#1A4E8D" transform="translate(255,39)"/>
<path d="M0 0 C0.66 0.33 1.32 0.66 2 1 C1.38253906 2.00675781 0.76507813 3.01351563 0.12890625 4.05078125 C-9.87158875 20.56313397 -18.0584445 37.27974057 -23 56 C-23.17789063 56.67063477 -23.35578125 57.34126953 -23.5390625 58.03222656 C-30.94832253 87.30174385 -23.87272756 116.26360778 -9.21923828 141.97265625 C-7.23145743 145.27792901 -4.99504513 148.29810513 -2.47265625 151.2109375 C-1 153 -1 153 0.453125 155.4375 C13.01985615 176.25511524 36.48287353 186.32198001 59 192 C65.65807035 193.58032572 72.50812523 193.24350135 79.3125 193.25 C80.39904373 193.25151062 80.39904373 193.25151062 81.50753784 193.25305176 C91.98607065 193.24316429 101.81565674 192.77435558 112 190 C113.31998802 189.65889812 114.64031314 189.31909858 115.9609375 188.98046875 C118.52607883 188.31317587 121.08112434 187.62230892 123.63671875 186.91796875 C134.32765957 184 134.32765957 184 139 184 C139 184.66 139 185.32 139 186 C139.66 186.33 140.32 186.66 141 187 C140.34 187.99 139.68 188.98 139 190 C140.32 190.33 141.64 190.66 143 191 C142.01 191 141.02 191 140 191 C140 191.99 140 192.98 140 194 C105.47542858 206.04357008 67.01945 212.51130578 32.60620117 196.1472168 C21.19452202 190.43933236 11.23772017 183.85088096 2 175 C0.98486328 174.07960938 0.98486328 174.07960938 -0.05078125 173.140625 C-21.20510785 153.30049504 -36.09239005 120.78388256 -37.07080078 91.91064453 C-37.82702557 61.80781415 -29.56327791 31.1850017 -8.625 8.75 C-6.77332779 6.80741957 -4.89520441 4.90089571 -3 3 C-2.38898438 2.38640625 -1.77796875 1.7728125 -1.1484375 1.140625 C-0.57996094 0.57601563 -0.57996094 0.57601563 0 0 Z " fill="#08ABE9" transform="translate(101,256)"/>
<path d="M0 0 C2 3 2 3 1.63769531 4.91162109 C1.42725586 5.60078613 1.21681641 6.28995117 1 7 C-0.00041553 20.23276909 0.15739495 32.84878783 8.15625 43.96484375 C16.82176752 53.52995949 31.42912365 56.45821403 43.76953125 57.23828125 C70.99308874 58.00329085 94.93464196 45.5786843 118.85961914 33.85351562 C137.59897671 24.73317859 156.72200017 16.91478988 177 12 C177.79905762 11.79262207 178.59811523 11.58524414 179.42138672 11.37158203 C198.04732204 6.61450386 220.0052193 5.81364609 239 9 C239.33 9.66 239.66 10.32 240 11 C237.36 11.33 234.72 11.66 232 12 C232 13.98 232 15.96 232 18 C231.36610352 18.01981934 230.73220703 18.03963867 230.07910156 18.06005859 C227.13573329 18.15681661 224.19293447 18.2658677 221.25 18.375 C220.25355469 18.4059375 219.25710938 18.436875 218.23046875 18.46875 C211.01385342 18.74810285 204.09336741 19.66917961 197 21 C195.63512451 21.24073242 195.63512451 21.24073242 194.24267578 21.48632812 C168.92317814 26.02116352 145.76773169 34.73878781 122.45751953 45.42529297 C57.23084756 75.1323989 57.23084756 75.1323989 25.9375 64.8125 C23.60402625 63.92849619 21.28767151 62.99655486 19 62 C18.04222656 61.61585938 17.08445312 61.23171875 16.09765625 60.8359375 C6.47504652 56.58173109 0.95414578 50.11153236 -3.08984375 40.515625 C-7.2453677 29.02997082 -5.88455742 14.42202434 -2 3 C-1.34 2.01 -0.68 1.02 0 0 Z " fill="#187DC1" transform="translate(104,300)"/>
<path d="M0 0 C1.67542976 0.28604898 3.34385343 0.61781233 5 1 C5 1.99 5 2.98 5 4 C1.62902617 5.49821059 -0.20442119 6 -4 6 C-4 5.34 -4 4.68 -4 4 C-7.73066922 6.65073865 -9.82689955 8.5208892 -11 13 C-11.16757757 16.20870233 -11.16757757 16.20870233 -11 19 C-7.535 18.505 -7.535 18.505 -4 18 C-4 17.34 -4 16.68 -4 16 C-3.34 16 -2.68 16 -2 16 C-2 15.34 -2 14.68 -2 14 C0.31 14.66 2.62 15.32 5 16 C5 15.34 5 14.68 5 14 C10.75 13.875 10.75 13.875 13 15 C13 14.34 13 13.68 13 13 C14.65532623 11.98133771 16.32260138 10.98189187 18 10 C18.33 9.34 18.66 8.68 19 8 C20.98 8 22.96 8 25 8 C24.44140625 9.8046875 24.44140625 9.8046875 23 12 C20.62249861 13.2284247 18.42947903 14.20710946 15.9375 15.125 C15.25647217 15.38361816 14.57544434 15.64223633 13.8737793 15.90869141 C1.41637981 20.53856072 -9.99891433 21.22150795 -23 18 C-19.46042393 23.25181002 -16.20543743 26.01462623 -10.0078125 27.50390625 C5.56590386 30.07255817 20.14422072 28.21983759 35.5390625 25.52734375 C36.30536484 25.39373947 37.07166718 25.26013519 37.8611908 25.1224823 C41.74451349 24.44295566 45.62460466 23.7497775 49.5012207 23.03295898 C66.91860269 19.86881521 80.40083032 20.26869133 95.75 29.6875 C100.59784929 34.67001177 104.62738676 40.9203484 105 48 C102.40443867 45.99770983 100.03697265 44.04014173 97.8125 41.625 C89.30367963 33.68343432 79.11594031 29.89321131 67.4375 30.046875 C64.60256409 30.27420477 61.81107321 30.57267568 59 31 C59.928125 31.5775 60.85625 32.155 61.8125 32.75 C66.54545455 36.09090909 66.54545455 36.09090909 68 39 C68.51656942 43.57532918 68.48326469 45.94942458 66.5625 50.125 C56.85324968 61.01830523 41.33798166 64.26130215 27.91796875 68.65625 C25.6744541 69.39224307 23.43107234 70.12863718 21.18786621 70.86557007 C19.64543762 71.3720267 18.10271229 71.87758047 16.55969238 72.38223267 C3.21102686 76.75975931 -9.84931627 81.70763687 -22.83056641 87.07470703 C-23.49484146 87.34563675 -24.15911652 87.61656647 -24.84352112 87.89570618 C-26.63266187 88.62627306 -28.41722032 89.3680337 -30.20141602 90.1105957 C-33 91 -33 91 -36 90 C-29.35951038 85.14468445 -22.61563003 80.90779711 -15.3125 77.125 C-14.32572266 76.61179199 -13.33894531 76.09858398 -12.32226562 75.56982422 C-2.66182484 70.65242125 7.29939439 66.7190918 17.45117188 62.94775391 C36.13088151 56.87714595 36.13088151 56.87714595 51 45 C51.41986946 42.28836222 51.41986946 42.28836222 51 40 C45.17946236 37.00273945 40.49373197 36.55971954 34 36.6875 C33.07372803 36.69587891 32.14745605 36.70425781 31.19311523 36.71289062 C24.50373404 36.82863388 18.09746504 37.539454 11.484375 38.54296875 C0.18510067 40.02504846 -11.11025495 39.5724604 -21.375 34.25 C-27.01524901 29.41550085 -31.32988955 24.68445136 -32.4140625 17.10546875 C-32.48367187 16.14253906 -32.55328125 15.17960938 -32.625 14.1875 C-32.69976562 13.21167969 -32.77453125 12.23585937 -32.8515625 11.23046875 C-32.92503906 10.12638672 -32.92503906 10.12638672 -33 9 C-31.94683594 8.84144531 -30.89367187 8.68289062 -29.80859375 8.51953125 C-13.84415721 6.68307984 -13.84415721 6.68307984 0 0 Z " fill="#1A5894" transform="translate(171,146)"/>
<path d="M0 0 C-3.1649328 2.67802006 -6.0967198 3.6989066 -10 5 C-14.93977526 7.60969259 -19.49708338 10.63996848 -24.08203125 13.828125 C-26 15 -26 15 -28 15 C-28 15.99 -28 16.98 -28 18 C-28.66 18 -29.32 18 -30 18 C-30 18.66 -30 19.32 -30 20 C-29.01 20.99 -29.01 20.99 -28 22 C-27.34 21.34 -26.68 20.68 -26 20 C-24.68 20 -23.36 20 -22 20 C-21.01 19.67 -20.02 19.34 -19 19 C-18.67 16.69 -18.34 14.38 -18 12 C-16.845 12.061875 -15.69 12.12375 -14.5 12.1875 C-9.69764326 12.1703793 -6.29213229 11.18371643 -2 9 C-0.86559222 6.42919865 -0.86559222 6.42919865 -1 4 C3.455 3.505 3.455 3.505 8 3 C8 3.66 8 4.32 8 5 C8.99 5 9.98 5 11 5 C11 5.66 11 6.32 11 7 C9.80246094 7.47308594 8.60492188 7.94617188 7.37109375 8.43359375 C-11.52335565 16.04637748 -27.45890207 25.93340696 -42.53125 39.765625 C-46.3584679 43.22949943 -50.33262579 46.49164192 -54.37304688 49.703125 C-55.51652017 50.61460912 -56.65545696 51.53179932 -57.79101562 52.453125 C-96.78645833 84 -96.78645833 84 -113 84 C-113.70074844 80.846632 -114 78.27275026 -114 75 C-119.47592661 76.32066465 -124.93527358 77.67948242 -130.34765625 79.2421875 C-131.10643066 79.45979736 -131.86520508 79.67740723 -132.64697266 79.90161133 C-134.12126739 80.3269914 -135.59377817 80.75862997 -137.06396484 81.19799805 C-148.82666811 84.57994213 -160.62924914 85.40896767 -172.8125 85.375 C-173.51621735 85.37478851 -174.21993469 85.37457703 -174.94497681 85.37435913 C-185.48700199 85.34275717 -195.02144811 84.66999625 -205 81 C-206.670625 80.43925781 -206.670625 80.43925781 -208.375 79.8671875 C-227.36141093 73.10551757 -241.08020201 62.07795837 -254 47 C-253.67 46.34 -253.34 45.68 -253 45 C-252.00033203 45.96099609 -252.00033203 45.96099609 -250.98046875 46.94140625 C-236.88832661 60.16633964 -220.85415316 68.82017582 -202 73 C-201.17628906 73.18433594 -200.35257813 73.36867188 -199.50390625 73.55859375 C-178.36792071 77.28459432 -154.50629269 74.07076588 -134.58203125 66.33984375 C-131 65 -131 65 -128 65 C-128.4640625 66.3303125 -128.4640625 66.3303125 -128.9375 67.6875 C-129.8290671 70.46709155 -130.49377007 73.13136375 -131 76 C-127.20696275 74.99806563 -124.28463659 74.18975773 -121 72 C-117.8125 71.875 -117.8125 71.875 -115 72 C-114.67 71.34 -114.34 70.68 -114 70 C-110.65489648 68.37265234 -108.81164166 68 -105 68 C-105 67.34 -105 66.68 -105 66 C-104.16082031 65.83177734 -104.16082031 65.83177734 -103.3046875 65.66015625 C-95.41298727 63.71895024 -89.22558671 59.61600384 -82.61279297 55.09716797 C-80.43122231 53.61306586 -78.21295237 52.18673974 -76 50.75 C-73.3822465 49.004831 -70.94931386 47.17411118 -68.5625 45.125 C-66 43 -66 43 -64 43 C-64 42.34 -64 41.68 -64 41 C-60.53846154 38 -60.53846154 38 -58 38 C-58 37.34 -58 36.68 -58 36 C-56.55235738 34.70958086 -55.03910851 33.49232866 -53.5 32.3125 C-50.34851212 29.86329354 -47.29951041 27.40218007 -44.375 24.6875 C-36.87854482 18.04429988 -9.94601144 -4.97300572 0 0 Z " fill="#187DC1" transform="translate(354,365)"/>
<path d="M0 0 C16.1517351 7.00924353 26.90219463 20.01550025 33.29980469 36.11816406 C37.50296337 47.41451939 38.60927337 61.01127098 37 73 C36.34 73.99 35.68 74.98 35 76 C34.80083984 74.84371094 34.80083984 74.84371094 34.59765625 73.6640625 C34.42105469 72.66117187 34.24445313 71.65828125 34.0625 70.625 C33.88847656 69.62726563 33.71445312 68.62953125 33.53515625 67.6015625 C33.12287938 65.03090344 33.12287938 65.03090344 32 63 C31.91363281 64.0415625 31.82726562 65.083125 31.73828125 66.15625 C29.08404493 94.56059009 15.97874134 119.69809101 -5.76953125 138.37890625 C-7.81480524 139.97325369 -9.87029224 141.52103628 -12 143 C-12.66 142.67 -13.32 142.34 -14 142 C-13.49210937 141.175 -12.98421875 140.35 -12.4609375 139.5 C2.41836963 114.78706442 5.75253834 87.16670312 9 59 C9.66 59 10.32 59 11 59 C12.65 62.96 14.3 66.92 16 71 C19.9297004 47.42179759 14.67696728 24.30643377 1.5390625 4.4765625 C0 2 0 2 0 0 Z " fill="#203A78" transform="translate(296,157)"/>
<path d="M0 0 C2 3 2 3 1.63769531 4.91162109 C1.42725586 5.60078613 1.21681641 6.28995117 1 7 C-0.00041553 20.23276909 0.15739495 32.84878783 8.15625 43.96484375 C16.82176752 53.52995949 31.42912365 56.45821403 43.76953125 57.23828125 C60.39640448 57.70111021 74.49746586 53.67665922 89.65307617 46.99829102 C90.53713135 46.61213623 91.42118652 46.22598145 92.33203125 45.828125 C93.50342651 45.3007373 93.50342651 45.3007373 94.69848633 44.76269531 C97.26057868 43.9136472 99.31815313 43.92953502 102 44 C104.30526988 43.19727586 104.30526988 43.19727586 106.5 42.0625 C109.68484554 40.55751475 112.4951497 39.53103792 116 39 C116.66 38.67 117.32 38.34 118 38 C119.4606285 40.64738916 120 41.89448334 120 45 C118.68 45 117.36 45 116 45 C116 45.66 116 46.32 116 47 C114.02 46.67 112.04 46.34 110 46 C110.33 46.99 110.66 47.98 111 49 C109.35 49 107.7 49 106 49 C106 49.66 106 50.32 106 51 C105.34 51 104.68 51 104 51 C103.67 51.99 103.34 52.98 103 54 C101.19677734 55.01147461 101.19677734 55.01147461 98.8359375 55.90234375 C97.96775391 56.23355225 97.09957031 56.56476074 96.20507812 56.90600586 C95.27115234 57.24639893 94.33722656 57.58679199 93.375 57.9375 C92.42818359 58.29013916 91.48136719 58.64277832 90.50585938 59.00610352 C67.6600472 67.36088963 42.07685165 72.05273201 19 62 C18.04222656 61.61585938 17.08445312 61.23171875 16.09765625 60.8359375 C6.47504652 56.58173109 0.95414578 50.11153236 -3.08984375 40.515625 C-7.2453677 29.02997082 -5.88455742 14.42202434 -2 3 C-1.34 2.01 -0.68 1.02 0 0 Z " fill="#13A9E2" transform="translate(104,300)"/>
<path d="M0 0 C4.06450567 2.95109055 7.96561891 5.92947885 11.625 9.375 C29.43559097 25.12918223 54.69855574 31.01174392 77.9453125 29.78515625 C91.95849648 28.79964839 106.27162339 26.44082943 119.41796875 21.33984375 C123 20 123 20 126 20 C125.5359375 21.3303125 125.5359375 21.3303125 125.0625 22.6875 C124.1709329 25.46709155 123.50622993 28.13136375 123 31 C126.79303725 29.99806563 129.71536341 29.18975773 133 27 C136.1875 26.875 136.1875 26.875 139 27 C139.33 26.34 139.66 25.68 140 25 C143.34510352 23.37265234 145.18835834 23 149 23 C149 22.34 149 21.68 149 21 C150.65 21 152.3 21 154 21 C145.09195074 28.32047612 132.66841023 31.61039698 121.8125 34.8125 C120.35408691 35.2470752 120.35408691 35.2470752 118.86621094 35.69042969 C106.38081212 39.24870548 94.12960116 40.41108339 81.1875 40.375 C80.48378265 40.37478851 79.78006531 40.37457703 79.05502319 40.37435913 C68.51299801 40.34275717 58.97855189 39.66999625 49 36 C47.88625 35.62617188 46.7725 35.25234375 45.625 34.8671875 C27.26684463 28.32925953 11.9936177 17.35074771 0 2 C0 1.34 0 0.68 0 0 Z " fill="#1466A5" transform="translate(100,410)"/>
<path d="M0 0 C1.67542976 0.28604898 3.34385343 0.61781233 5 1 C5 1.99 5 2.98 5 4 C1.62902617 5.49821059 -0.20442119 6 -4 6 C-4 5.34 -4 4.68 -4 4 C-7.73066922 6.65073865 -9.82689955 8.5208892 -11 13 C-11.16757757 16.20870233 -11.16757757 16.20870233 -11 19 C-7.535 18.505 -7.535 18.505 -4 18 C-4 17.34 -4 16.68 -4 16 C-3.34 16 -2.68 16 -2 16 C-2 15.34 -2 14.68 -2 14 C0.31 14.66 2.62 15.32 5 16 C5 15.34 5 14.68 5 14 C10.75 13.875 10.75 13.875 13 15 C13 14.34 13 13.68 13 13 C14.65532623 11.98133771 16.32260138 10.98189187 18 10 C18.33 9.34 18.66 8.68 19 8 C20.98 8 22.96 8 25 8 C24.44140625 9.8046875 24.44140625 9.8046875 23 12 C20.62249861 13.2284247 18.42947903 14.20710946 15.9375 15.125 C15.25647217 15.38361816 14.57544434 15.64223633 13.8737793 15.90869141 C1.41637981 20.53856072 -9.99891433 21.22150795 -23 18 C-18.6953353 24.38700251 -14.46532327 26.45087165 -7 28 C-7 28.66 -7 29.32 -7 30 C-2.41667994 30.02901401 2.16661651 30.04680348 6.75 30.0625 C8.70292969 30.07506836 8.70292969 30.07506836 10.6953125 30.08789062 C11.94570312 30.09111328 13.19609375 30.09433594 14.484375 30.09765625 C15.63647461 30.10289307 16.78857422 30.10812988 17.97558594 30.11352539 C20.51926964 30.01804485 22.58398313 29.74917261 25 29 C25 30.98 25 32.96 25 35 C24.36191406 35.04898438 23.72382813 35.09796875 23.06640625 35.1484375 C22.24011719 35.22320312 21.41382813 35.29796875 20.5625 35.375 C19.73878906 35.44460937 18.91507813 35.51421875 18.06640625 35.5859375 C17.04353516 35.79089844 17.04353516 35.79089844 16 36 C15.505 36.99 15.505 36.99 15 38 C3.13555513 40.75917323 -10.51745834 39.87983642 -21.375 34.25 C-27.01524901 29.41550085 -31.32988955 24.68445136 -32.4140625 17.10546875 C-32.48367187 16.14253906 -32.55328125 15.17960938 -32.625 14.1875 C-32.69976562 13.21167969 -32.77453125 12.23585937 -32.8515625 11.23046875 C-32.90054688 10.49441406 -32.94953125 9.75835937 -33 9 C-31.94683594 8.84144531 -30.89367187 8.68289062 -29.80859375 8.51953125 C-13.84415721 6.68307984 -13.84415721 6.68307984 0 0 Z " fill="#156BA8" transform="translate(171,146)"/>
<path d="M0 0 C4.84784929 4.98251177 8.87738676 11.2328484 9.25 18.3125 C6.65443867 16.31020983 4.28697265 14.35264173 2.0625 11.9375 C-6.44632037 3.99593432 -16.63405969 0.20571131 -28.3125 0.359375 C-31.14743591 0.58670477 -33.93892679 0.88517568 -36.75 1.3125 C-36.75 2.6325 -36.75 3.9525 -36.75 5.3125 C-37.41 5.3125 -38.07 5.3125 -38.75 5.3125 C-38.75 5.9725 -38.75 6.6325 -38.75 7.3125 C-40.73567708 6.79166667 -42.72135417 6.27083333 -44.70703125 5.75 C-46.89070009 5.2077993 -46.89070009 5.2077993 -49.75 5.3125 C-50.245 3.8275 -50.245 3.8275 -50.75 2.3125 C-50.75 3.3025 -50.75 4.2925 -50.75 5.3125 C-54.04159316 5.37040353 -57.33305603 5.40606261 -60.625 5.4375 C-62.03072266 5.46263672 -62.03072266 5.46263672 -63.46484375 5.48828125 C-64.36074219 5.49472656 -65.25664062 5.50117188 -66.1796875 5.5078125 C-67.00710449 5.51828613 -67.83452148 5.52875977 -68.68701172 5.53955078 C-70.75 5.3125 -70.75 5.3125 -72.75 3.3125 C-72.09 3.3125 -71.43 3.3125 -70.75 3.3125 C-70.75 1.9925 -70.75 0.6725 -70.75 -0.6875 C-71.28608887 -0.36297852 -71.82217773 -0.03845703 -72.37451172 0.29589844 C-75.31087973 1.55253116 -77.56719541 1.5713064 -80.7578125 1.578125 C-81.90894531 1.58070313 -83.06007812 1.58328125 -84.24609375 1.5859375 C-86.04240234 1.57433594 -86.04240234 1.57433594 -87.875 1.5625 C-89.68291016 1.57410156 -89.68291016 1.57410156 -91.52734375 1.5859375 C-92.67589844 1.58335937 -93.82445312 1.58078125 -95.0078125 1.578125 C-96.58780029 1.57474121 -96.58780029 1.57474121 -98.19970703 1.57128906 C-100.75 1.3125 -100.75 1.3125 -102.75 -0.6875 C-101.33074219 -0.65269531 -101.33074219 -0.65269531 -99.8828125 -0.6171875 C-86.43177233 -0.38577918 -73.44024273 -1.83888385 -60.2109375 -4.15625 C-59.44463516 -4.29010101 -58.67833282 -4.42395203 -57.8888092 -4.56185913 C-54.00558368 -5.24295694 -50.12557461 -5.93798581 -46.2487793 -6.65478516 C-28.83115054 -9.81813655 -15.34941275 -9.41895783 0 0 Z " fill="#185A98" transform="translate(266.75,175.6875)"/>
<path d="M0 0 C0.93650391 -0.01611328 1.87300781 -0.03222656 2.83789062 -0.04882812 C3.74087891 -0.04947266 4.64386719 -0.05011719 5.57421875 -0.05078125 C6.38850342 -0.05376221 7.20278809 -0.05674316 8.04174805 -0.05981445 C10.81919773 0.3955786 12.12234566 1.60182181 14.3125 3.3125 C15.3025 3.3125 16.2925 3.3125 17.3125 3.3125 C16.9825 5.2925 16.6525 7.2725 16.3125 9.3125 C17.32570313 9.38597656 17.32570313 9.38597656 18.359375 9.4609375 C19.25140625 9.53570312 20.1434375 9.61046875 21.0625 9.6875 C21.94421875 9.75710937 22.8259375 9.82671875 23.734375 9.8984375 C28.49234823 10.66259684 31.11609419 12.78543152 34.3125 16.3125 C34.8075 17.3025 34.8075 17.3025 35.3125 18.3125 C36.42625 18.3125 37.54 18.3125 38.6875 18.3125 C40.5625 18.3125 42.4375 18.3125 44.3125 18.3125 C46.02972121 17.24346224 46.02972121 17.24346224 47.8125 15.875 C49.63514019 14.51960444 51.27864815 13.32942592 53.3125 12.3125 C52.78981534 9.54973823 52.20380413 6.9864124 51.3125 4.3125 C51.9725 3.6525 52.6325 2.9925 53.3125 2.3125 C59.9521427 15.6462087 63.5128132 28.82487657 63.375 43.6875 C63.37048828 44.61433594 63.36597656 45.54117188 63.36132812 46.49609375 C63.34961574 48.76829709 63.33321372 51.04036388 63.3125 53.3125 C61.15588089 50.55051412 59.39106481 47.74594676 57.6875 44.6875 C46.75054516 26.32421779 28.65263733 14.03615181 8.3125 8.3125 C-1.18760252 6.11083759 -10.96409315 4.93359868 -20.6875 4.3125 C-14.17716376 -0.02772416 -7.59603873 -0.02646703 0 0 Z " fill="#213572" transform="translate(276.6875,125.6875)"/>
<path d="M0 0 C-0.33 1.98 -0.66 3.96 -1 6 C-0.443125 5.2265625 -0.443125 5.2265625 0.125 4.4375 C2 3 2 3 5.1875 3.3125 C6.115625 3.539375 7.04375 3.76625 8 4 C8 4.66 8 5.32 8 6 C4.68229012 8.31969654 1.4076843 9.66318603 -2.4453125 10.83984375 C-3.50919189 11.17459717 -4.57307129 11.50935059 -5.66918945 11.85424805 C-6.80960693 12.21172119 -7.95002441 12.56919434 -9.125 12.9375 C-22.56742541 17.27344229 -35.29710915 22.76528473 -48.12207031 28.68310547 C-51.95096095 30.4351445 -55.81062371 32.10743008 -59.6875 33.75 C-60.74324219 34.19859375 -61.79898438 34.6471875 -62.88671875 35.109375 C-63.93279297 35.55023438 -63.93279297 35.55023438 -65 36 C-65.33 35.34 -65.66 34.68 -66 34 C-65.34 34 -64.68 34 -64 34 C-64 33.34 -64 32.68 -64 32 C-62.68 31.67 -61.36 31.34 -60 31 C-60 30.34 -60 29.68 -60 29 C-58.02 29.33 -56.04 29.66 -54 30 C-54 29.34 -54 28.68 -54 28 C-52.68 28 -51.36 28 -50 28 C-50.33 27.401875 -50.66 26.80375 -51 26.1875 C-52 24 -52 24 -52 21 C-52.33 21.66 -52.66 22.32 -53 23 C-54.890625 23.59765625 -54.890625 23.59765625 -57.25 24.0625 C-58.46236328 24.30806641 -58.46236328 24.30806641 -59.69921875 24.55859375 C-60.45847656 24.70425781 -61.21773437 24.84992188 -62 25 C-63.010625 25.20625 -64.02125 25.4125 -65.0625 25.625 C-65.701875 25.74875 -66.34125 25.8725 -67 26 C-67.33 26.99 -67.66 27.98 -68 29 C-68 28.34 -68 27.68 -68 27 C-68.66 26.67 -69.32 26.34 -70 26 C-55.54727168 18.81391834 -41.06517428 11.80923149 -26.125 5.6875 C-25.01020264 5.22625732 -23.89540527 4.76501465 -22.74682617 4.28979492 C-14.83522406 1.10654713 -8.57457526 -0.17499133 0 0 Z " fill="#158BCC" transform="translate(274,317)"/>
<path d="M0 0 C0 0.66 0 1.32 0 2 C0.99 2.495 0.99 2.495 2 3 C1.34 3.99 0.68 4.98 0 6 C1.32 6.33 2.64 6.66 4 7 C3.01 7 2.02 7 1 7 C1 7.99 1 8.98 1 10 C-15.36664734 15.70935007 -30.54546157 20.23072703 -48 21 C-49.43088528 18.13822943 -48.59991697 16.06624227 -48 13 C-49.55460937 12.92652344 -49.55460937 12.92652344 -51.140625 12.8515625 C-52.51044208 12.77650403 -53.88023248 12.70095753 -55.25 12.625 C-55.93191406 12.5940625 -56.61382812 12.563125 -57.31640625 12.53125 C-61.06482002 12.3128958 -63.72919393 11.79957477 -67 10 C-66.35675781 9.98541748 -65.71351563 9.97083496 -65.05078125 9.95581055 C-47.78561327 9.52017908 -32.01931163 7.50849032 -15.36328125 2.91796875 C-4.67234043 0 -4.67234043 0 0 0 Z " fill="#0D9ADB" transform="translate(240,440)"/>
<path d="M0 0 C0.99 0 1.98 0 3 0 C3 1.98 3 3.96 3 6 C2.01 6.33 1.02 6.66 0 7 C0 7.66 0 8.32 0 9 C-0.91773193 9.29543701 -1.83546387 9.59087402 -2.78100586 9.89526367 C-7.17078948 11.3129798 -11.55512811 12.74704929 -15.9375 14.1875 C-16.73767548 14.45033783 -17.53785095 14.71317566 -18.36227417 14.98397827 C-32.06496711 19.5054211 -45.49238085 24.56043701 -58.82592773 30.07299805 C-59.4908725 30.3441745 -60.15581726 30.61535095 -60.84091187 30.89474487 C-62.63094419 31.62557836 -64.41636523 32.36767782 -66.20141602 33.1105957 C-69 34 -69 34 -72 33 C-65.35945584 28.14464457 -58.61550493 23.90813121 -51.3125 20.125 C-50.33079834 19.61396729 -49.34909668 19.10293457 -48.33764648 18.57641602 C-38.6419647 13.63803689 -28.63880392 9.63399919 -18.42822266 5.8972168 C-16.85334817 5.31530812 -15.28469424 4.71616434 -13.72412109 4.09692383 C-8.7266097 2.12147383 -5.27464048 1.71742997 0 2 C0 1.34 0 0.68 0 0 Z " fill="#1F669A" transform="translate(207,203)"/>
<path d="M0 0 C-3.1649328 2.67802006 -6.0967198 3.6989066 -10 5 C-14.93977526 7.60969259 -19.49708338 10.63996848 -24.08203125 13.828125 C-26 15 -26 15 -28 15 C-28 15.99 -28 16.98 -28 18 C-28.66 18 -29.32 18 -30 18 C-30 18.66 -30 19.32 -30 20 C-29.34 20.66 -28.68 21.32 -28 22 C-27.34 21.34 -26.68 20.68 -26 20 C-24.68 20 -23.36 20 -22 20 C-21.01 19.67 -20.02 19.34 -19 19 C-18.67 16.69 -18.34 14.38 -18 12 C-16.845 12.061875 -15.69 12.12375 -14.5 12.1875 C-9.69764326 12.1703793 -6.29213229 11.18371643 -2 9 C-0.86559222 6.42919865 -0.86559222 6.42919865 -1 4 C3.455 3.505 3.455 3.505 8 3 C8 3.66 8 4.32 8 5 C8.99 5 9.98 5 11 5 C11 5.66 11 6.32 11 7 C9.80246094 7.47308594 8.60492188 7.94617188 7.37109375 8.43359375 C-11.62079385 16.08563642 -27.87696214 26.00872922 -42.84375 40.15234375 C-44.83726837 41.86055786 -46.60441615 42.96009883 -49 44 C-49.33 42.68 -49.66 41.36 -50 40 C-48.68 40.33 -47.36 40.66 -46 41 C-46.66 40.01 -47.32 39.02 -48 38 C-47.625 35.3125 -47.625 35.3125 -47 33 C-45.515 32.505 -45.515 32.505 -44 32 C-43.67 32.99 -43.34 33.98 -43 35 C-41.02 34.505 -41.02 34.505 -39 34 C-40.39759905 30.45481116 -40.39759905 30.45481116 -42 27 C-43.98 28.32 -45.96 29.64 -48 31 C-48.66 30.67 -49.32 30.34 -50 30 C-42.004332 22.21575592 -11.47124566 -5.73562283 0 0 Z " fill="#1D74B9" transform="translate(354,365)"/>
<path d="M0 0 C10.31617029 10.31617029 11.02797968 35.63827492 11.0625 49.1875 C11.0467943 50.79172506 11.02792366 52.39594109 11 54 C10.34 54 9.68 54 9 54 C8.68289063 53.13761719 8.36578125 52.27523437 8.0390625 51.38671875 C1.30670043 33.77471079 -6.68617503 15.74706067 -22 4 C-22.804375 3.38125 -23.60875 2.7625 -24.4375 2.125 C-24.953125 1.75375 -25.46875 1.3825 -26 1 C-24.35 1 -22.7 1 -21 1 C-21 1.66 -21 2.32 -21 3 C-20.401875 3.103125 -19.80375 3.20625 -19.1875 3.3125 C-16.71756736 4.08876455 -15.67748765 5.07088921 -14 7 C-13.67 5.68 -13.34 4.36 -13 3 C-12.34 3.33 -11.68 3.66 -11 4 C-10 7 -10 7 -10.9375 9.1875 C-11.288125 9.785625 -11.63875 10.38375 -12 11 C-11.34 11 -10.68 11 -10 11 C-8.375 12.5 -8.375 12.5 -7 14 C-7 13.01 -7 12.02 -7 11 C-5.35 11.66 -3.7 12.32 -2 13 C-0.29159719 11.36587557 0.93453047 10.13093906 2 8 C1.34 8 0.68 8 0 8 C0 5.33333333 0 2.66666667 0 0 Z " fill="#26235C" transform="translate(425,373)"/>
<path d="M0 0 C1.4540625 0.0309375 1.4540625 0.0309375 2.9375 0.0625 C3.4325 1.0525 3.4325 1.0525 3.9375 2.0625 C5.5875 2.0625 7.2375 2.0625 8.9375 2.0625 C8.2775 3.7125 7.6175 5.3625 6.9375 7.0625 C5.9475 7.0625 4.9575 7.0625 3.9375 7.0625 C3.84702393 7.67295166 3.75654785 8.28340332 3.66333008 8.91235352 C2.73992064 11.64779478 1.82816079 12.10142976 -0.67578125 13.46484375 C-1.42408203 13.87814941 -2.17238281 14.29145508 -2.94335938 14.71728516 C-3.74580078 15.14058105 -4.54824219 15.56387695 -5.375 16 C-6.18646484 16.43876465 -6.99792969 16.8775293 -7.83398438 17.32958984 C-24.21670332 26.0625 -24.21670332 26.0625 -29.0625 26.0625 C-29.76324844 22.909132 -30.0625 20.33525026 -30.0625 17.0625 C-32.0425 17.3925 -34.0225 17.7225 -36.0625 18.0625 C-32.67986896 15.2323087 -28.97131541 13.5592219 -24.9375 11.875 C-23.98810547 11.46604492 -23.98810547 11.46604492 -23.01953125 11.04882812 C-18.3300047 9.0625 -18.3300047 9.0625 -16.0625 9.0625 C-16.0625 8.4025 -16.0625 7.7425 -16.0625 7.0625 C-15.20785156 6.64097656 -14.35320312 6.21945312 -13.47265625 5.78515625 C-12.36792969 5.23730469 -11.26320313 4.68945312 -10.125 4.125 C-9.02285156 3.57972656 -7.92070312 3.03445313 -6.78515625 2.47265625 C-2.09357345 0.04272599 -2.09357345 0.04272599 0 0 Z " fill="#1787C7" transform="translate(270.0625,422.9375)"/>
<path d="M0 0 C0.66 0 1.32 0 2 0 C3.4606285 2.64738916 4 3.89448334 4 7 C2.68 7 1.36 7 0 7 C0 7.66 0 8.32 0 9 C-1.98 8.67 -3.96 8.34 -6 8 C-5.505 9.485 -5.505 9.485 -5 11 C-6.65 11 -8.3 11 -10 11 C-10 11.66 -10 12.32 -10 13 C-10.66 13 -11.32 13 -12 13 C-12.33 13.99 -12.66 14.98 -13 16 C-14.8984375 17.04321289 -14.8984375 17.04321289 -17.375 17.97265625 C-18.73044922 18.48602539 -18.73044922 18.48602539 -20.11328125 19.00976562 C-21.06589844 19.35716797 -22.01851562 19.70457031 -23 20.0625 C-23.92167969 20.41376953 -24.84335938 20.76503906 -25.79296875 21.12695312 C-31.47789682 23.24777608 -37.04802045 24.82302044 -43 26 C-42.34 25.67 -41.68 25.34 -41 25 C-41 23.35 -41 21.7 -41 20 C-39.68 19.67 -38.36 19.34 -37 19 C-41.01804691 18.15901344 -44.01803543 17.94595055 -48 19 C-48 18.34 -48 17.68 -48 17 C-47.44127197 16.80889648 -46.88254395 16.61779297 -46.30688477 16.42089844 C-43.72396799 15.53477857 -41.14324502 14.64242418 -38.5625 13.75 C-37.24475586 13.29947266 -37.24475586 13.29947266 -35.90039062 12.83984375 C-30.74519624 11.05169514 -25.77256727 9.08323079 -20.84155273 6.74316406 C-18.49770341 5.79729672 -16.5127318 6 -14 6 C-11.67007351 5.07916508 -9.42505895 4.0270938 -7.16015625 2.95703125 C-4.8001227 1.91144677 -2.55951434 1.33025991 0 1 C0 0.67 0 0.34 0 0 Z " fill="#0CA0E0" transform="translate(220,338)"/>
<path d="M0 0 C0.66 0 1.32 0 2 0 C1.375 2.875 1.375 2.875 0 6 C-4.39421575 8.19710787 -9.1633957 8.49966162 -14 9 C-14.38133299 10.9914056 -14.71325582 12.99279077 -15 15 C-14.01732141 16.20561184 -14.01732141 16.20561184 -12.15234375 16.09765625 C-10.1015625 16.06510417 -8.05078125 16.03255208 -6 16 C-6.495 17.485 -6.495 17.485 -7 19 C-9.70978334 19.93776067 -12.2065307 20.61063678 -15 21.1875 C-15.82854492 21.36112061 -16.65708984 21.53474121 -17.51074219 21.71362305 C-30.2749364 24.09900503 -45.21969695 24.7361146 -58 22 C-58.33 21.34 -58.66 20.68 -59 20 C-58.46334717 19.88519287 -57.92669434 19.77038574 -57.3737793 19.65209961 C-40.90834177 16.07372073 -25.53414757 11.18766017 -10.3125 3.93359375 C-6.86271003 2.5408576 -3.69979859 2.20942256 0 2 C0 1.34 0 0.68 0 0 Z " fill="#195894" transform="translate(247,368)"/>
<path d="M0 0 C1.29808594 0.16242188 2.59617188 0.32484375 3.93359375 0.4921875 C10.8727447 1.18280811 17.80919862 1.14972858 24.77416992 1.13037109 C27.03376151 1.12506745 29.29314926 1.13031417 31.55273438 1.13671875 C41.73385023 1.1408721 51.84422825 0.70493854 62 0 C59.35253906 2.97216797 59.35253906 2.97216797 56.1796875 3.22265625 C55.08914062 3.16980469 53.99859375 3.11695313 52.875 3.0625 C48.87160388 2.96086853 45.37038226 2.95686723 41.5 4 C35.74727229 5.52689221 29.90587753 5.16430571 24 5 C24 6.32 24 7.64 24 9 C27.47464651 10.38985861 30.4082923 11.12514114 34.125 11.0625 C37.19596407 11.01296832 39.14586297 11.15432977 42 12 C42.99 12 43.98 12 45 12 C45.66 12.33 46.32 12.66 47 13 C52.87228749 13.64557917 57.50513221 12.65361507 62.98046875 10.6015625 C65.58190414 9.82666685 67.46012564 10.09875426 70 11 C69.67 11.66 69.34 12.32 69 13 C73.75287098 12.3684335 73.75287098 12.3684335 78.4375 11.375 C82.10883012 10.83773218 85.33616389 11.44110975 89 12 C88.6875 14.375 88.6875 14.375 88 17 C87.01 17.66 86.02 18.32 85 19 C84.01 18.01 84.01 18.01 83 17 C83.99 16.67 84.98 16.34 86 16 C86.33 15.34 86.66 14.68 87 14 C85.23462891 14.48533203 85.23462891 14.48533203 83.43359375 14.98046875 C76.70074041 16.46745511 69.92594374 16.35183412 63.0625 16.3125 C62.37303284 16.31001251 61.68356567 16.30752502 60.97320557 16.30496216 C39.39752747 16.18456566 19.26375676 12.12125788 0 2 C0 1.34 0 0.68 0 0 Z " fill="#1B5D96" transform="translate(144,413)"/>
<path d="M0 0 C40.92914603 -1.10803602 40.92914603 -1.10803602 53 6 C53 6.66 53 7.32 53 8 C53.9590625 8.1546875 53.9590625 8.1546875 54.9375 8.3125 C55.618125 8.539375 56.29875 8.76625 57 9 C57.495 10.485 57.495 10.485 58 12 C54.71731933 14.69648769 52.22919116 16.15551287 47.90722656 15.85400391 C47.15924805 15.72944824 46.41126953 15.60489258 45.640625 15.4765625 C44.35406006 15.276073 44.35406006 15.276073 43.04150391 15.0715332 C42.12030762 14.92417725 41.19911133 14.77682129 40.25 14.625 C28.19166775 12.81838997 16.17752593 12.29024654 4 12 C4 11.67 4 11.34 4 11 C11.26 10.67 18.52 10.34 26 10 C26.33 8.35 26.66 6.7 27 5 C29.31 4.34 31.62 3.68 34 3 C26.64825496 2.07226123 19.34049273 1.69807851 11.9375 1.4375 C10.78572266 1.39431641 9.63394531 1.35113281 8.44726562 1.30664062 C5.63160509 1.20149148 2.81587024 1.09934607 0 1 C0 0.67 0 0.34 0 0 Z " fill="#225E9C" transform="translate(309,307)"/>
<path d="M0 0 C0.66 0.33 1.32 0.66 2 1 C1.38253906 2.00675781 0.76507813 3.01351563 0.12890625 4.05078125 C-9.94057268 20.67703703 -17.65769435 37.29145512 -23 56 C-23.33 56 -23.66 56 -24 56 C-24 53.36 -24 50.72 -24 48 C-23.34 48 -22.68 48 -22 48 C-22.33 46.68 -22.66 45.36 -23 44 C-23.66 44 -24.32 44 -25 44 C-25.495 42.515 -25.495 42.515 -26 41 C-26.66 41 -27.32 41 -28 41 C-23.21698328 24.84792784 -11.99380367 11.40555172 0 0 Z " fill="#15A9E0" transform="translate(101,256)"/>
<path d="M0 0 C0.6682908 19.72228961 -1.43524948 34.5631374 -11 52 C-11.61875 51.525625 -12.2375 51.05125 -12.875 50.5625 C-14.90705546 48.97582559 -14.90705546 48.97582559 -17 48 C-14.625 46.9375 -14.625 46.9375 -12 46 C-11.01 46.495 -11.01 46.495 -10 47 C-9.27945952 41.33861055 -8.61726196 35.67355671 -8 30 C-6.68 29.67 -5.36 29.34 -4 29 C-0.94186051 15.84054768 -0.94186051 15.84054768 -3 3 C-3.66 3.66 -4.32 4.32 -5 5 C-7.125 4.625 -7.125 4.625 -9 4 C-9 4.66 -9 5.32 -9 6 C-11.64 5.67 -14.28 5.34 -17 5 C-17.66 6.32 -18.32 7.64 -19 9 C-19.66 8.67 -20.32 8.34 -21 8 C-21 9.32 -21 10.64 -21 12 C-23.79632077 13.23367093 -26.14200253 14.01949054 -29.1875 14.4375 C-30.115625 14.623125 -31.04375 14.80875 -32 15 C-32.99 16.485 -32.99 16.485 -34 18 C-34.66 18 -35.32 18 -36 18 C-36.33 18.99 -36.66 19.98 -37 21 C-38.66666667 22.33333333 -40.33333333 23.66666667 -42 25 C-42.33 25.99 -42.66 26.98 -43 28 C-43.99 28 -44.98 28 -46 28 C-46.33 28.99 -46.66 29.98 -47 31 C-48.65 31 -50.3 31 -52 31 C-52 28.36 -52 25.72 -52 23 C-51.67 23 -51.34 23 -51 23 C-51 25.31 -51 27.62 -51 30 C-47.61327261 28.87109087 -47.24760829 28.2708534 -45.3125 25.4375 C-35.24287178 11.65930139 -17.89047193 -0.87403832 0 0 Z " fill="#233D73" transform="translate(314,50)"/>
<path d="M0 0 C4.84784929 4.98251177 8.87738676 11.2328484 9.25 18.3125 C6.65443867 16.31020983 4.28697265 14.35264173 2.0625 11.9375 C-5.87453549 4.52960021 -14.16797716 2.05075735 -24.75 0.3125 C-24.75 -0.0175 -24.75 -0.3475 -24.75 -0.6875 C-22.44 -0.6875 -20.13 -0.6875 -17.75 -0.6875 C-17.42 -2.6675 -17.09 -4.6475 -16.75 -6.6875 C-24.01 -6.6875 -31.27 -6.6875 -38.75 -6.6875 C-38.75 -6.0275 -38.75 -5.3675 -38.75 -4.6875 C-47.165 -4.1925 -47.165 -4.1925 -55.75 -3.6875 C-55.75 -4.0175 -55.75 -4.3475 -55.75 -4.6875 C-52.31563469 -5.37101005 -48.87713415 -6.03106434 -45.4375 -6.6875 C-44.48037109 -6.87828125 -43.52324219 -7.0690625 -42.53710938 -7.265625 C-26.59680646 -10.271204 -13.84869315 -8.49806171 0 0 Z " fill="#1D4C88" transform="translate(266.75,175.6875)"/>
<path d="M0 0 C1.18198059 2.50301771 2.0172568 4.39601183 1.9375 7.1875 C0.57383908 9.82391112 -1.26850016 10.02446434 -4 11 C-4.43932861 11.46317627 -4.87865723 11.92635254 -5.33129883 12.40356445 C-7.46783695 14.44757656 -9.60605717 15.32412377 -12.32421875 16.48046875 C-13.35224609 16.92197266 -14.38027344 17.36347656 -15.43945312 17.81835938 C-16.51130859 18.27017578 -17.58316406 18.72199219 -18.6875 19.1875 C-19.77095703 19.65091797 -20.85441406 20.11433594 -21.97070312 20.59179688 C-24.64446075 21.73432767 -27.32088586 22.87010033 -30 24 C-30.33 23.34 -30.66 22.68 -31 22 C-30.34 22 -29.68 22 -29 22 C-29 21.34 -29 20.68 -29 20 C-27.68 19.67 -26.36 19.34 -25 19 C-25 18.34 -25 17.68 -25 17 C-23.02 17.33 -21.04 17.66 -19 18 C-19 17.34 -19 16.68 -19 16 C-17.68 16 -16.36 16 -15 16 C-15.33 15.401875 -15.66 14.80375 -16 14.1875 C-17 12 -17 12 -17 9 C-17.33 9.66 -17.66 10.32 -18 11 C-19.890625 11.59765625 -19.890625 11.59765625 -22.25 12.0625 C-23.05824219 12.22621094 -23.86648437 12.38992188 -24.69921875 12.55859375 C-25.45847656 12.70425781 -26.21773437 12.84992188 -27 13 C-28.010625 13.20625 -29.02125 13.4125 -30.0625 13.625 C-30.701875 13.74875 -31.34125 13.8725 -32 14 C-32.33 14.99 -32.66 15.98 -33 17 C-33 16.34 -33 15.68 -33 15 C-33.66 14.67 -34.32 14.34 -35 14 C-31.00606543 12.02911922 -27.00387161 10.07560412 -23 8.125 C-21.87464844 7.56941406 -20.74929687 7.01382812 -19.58984375 6.44140625 C-6.31899473 0 -6.31899473 0 0 0 Z " fill="#0C95D8" transform="translate(239,329)"/>
<path d="M0 0 C12.34146341 3.43902439 12.34146341 3.43902439 16 6 C17.1875 9.625 17.1875 9.625 18 13 C18.99 13.33 19.98 13.66 21 14 C19.35 15.65 17.7 17.3 16 19 C7.55823333 16.286575 -0.71110853 13.14265947 -9 10 C-9 9.67 -9 9.34 -9 9 C-8.154375 9.061875 -7.30875 9.12375 -6.4375 9.1875 C-2.26380157 8.95984372 0.25432947 7.79792186 4 6 C3.67 5.01 3.34 4.02 3 3 C2.01 2.67 1.02 2.34 0 2 C0 1.34 0 0.68 0 0 Z " fill="#224A8A" transform="translate(362,313)"/>
<path d="M0 0 C2.11250833 0.01837816 4.22457772 0.02050793 6.3371582 0.02026367 C20.20573083 0.05421889 20.20573083 0.05421889 26.91723633 1.20581055 C27.41223633 2.19581055 27.41223633 2.19581055 27.91723633 3.20581055 C25.27723633 3.53581055 22.63723633 3.86581055 19.91723633 4.20581055 C19.91723633 6.18581055 19.91723633 8.16581055 19.91723633 10.20581055 C13.97723633 10.20581055 8.03723633 10.20581055 1.91723633 10.20581055 C2.24723633 9.54581055 2.57723633 8.88581055 2.91723633 8.20581055 C2.59173131 6.53759732 2.2587757 4.87081498 1.91723633 3.20581055 C2.24723633 2.87581055 2.57723633 2.54581055 2.91723633 2.20581055 C0.27133619 2.17896376 -2.37429463 2.15904698 -5.02026367 2.14331055 C-5.77500977 2.13493164 -6.52975586 2.12655273 -7.30737305 2.11791992 C-9.23270681 2.10928614 -11.15811948 2.15356722 -13.08276367 2.20581055 C-13.41276367 2.53581055 -13.74276367 2.86581055 -14.08276367 3.20581055 C-16.10240566 3.27825108 -18.12443491 3.28958243 -20.14526367 3.26831055 C-21.24999023 3.25928711 -22.3547168 3.25026367 -23.49291992 3.2409668 C-24.77489258 3.22356445 -24.77489258 3.22356445 -26.08276367 3.20581055 C-26.08276367 2.87581055 -26.08276367 2.54581055 -26.08276367 2.20581055 C-17.35755157 0.37704919 -8.87406564 -0.07972268 0 0 Z " fill="#1F70B3" transform="translate(316.082763671875,307.794189453125)"/>
<path d="M0 0 C6.55657592 4.71644699 12.90413002 9.76829759 18.53125 15.58203125 C22.41099947 19.32764045 27.25950036 21.85365326 32.3125 23.625 C36 25 36 25 37.53125 26.57421875 C39.04127121 28.35063921 39.04127121 28.35063921 42.1875 28.1875 C43.115625 28.125625 44.04375 28.06375 45 28 C45.495 29.98 45.495 29.98 46 32 C46.99 32 47.98 32 49 32 C49.66 32.66 50.32 33.32 51 34 C51.66 33.67 52.32 33.34 53 33 C53.39832031 33.47050781 53.79664063 33.94101562 54.20703125 34.42578125 C56.3617393 36.31760553 57.89091882 36.66060789 60.6875 37.1875 C61.89986328 37.42533203 61.89986328 37.42533203 63.13671875 37.66796875 C63.75160156 37.77753906 64.36648437 37.88710938 65 38 C65 38.33 65 38.66 65 39 C42.01046145 38.27017338 20.87359117 24.68342382 5.54223633 8.4074707 C0 2.3938097 0 2.3938097 0 0 Z " fill="#0980C1" transform="translate(100,410)"/>
<path d="M0 0 C-1.32 1.32 -2.64 2.64 -4 4 C-4.309375 3.360625 -4.61875 2.72125 -4.9375 2.0625 C-5.8345163 0.06389179 -5.8345163 0.06389179 -7 -1 C-9.33291811 -1.04401732 -11.66700175 -1.03954234 -14 -1 C-18 -1 -18 -1 -20.125 -1.5625 C-22.07591269 -2.22819173 -22.07591269 -2.22819173 -24 -1 C-25.66619446 -0.9603287 -27.33391013 -0.95615553 -29 -1 C-29.495 -2.98 -29.495 -2.98 -30 -5 C-29.34 -5 -28.68 -5 -28 -5 C-28 -5.66 -28 -6.32 -28 -7 C-33.94 -7 -39.88 -7 -46 -7 C-46.33 -6.34 -46.66 -5.68 -47 -5 C-50.03943523 -3.98685492 -52.75389438 -3.93244006 -55.9453125 -4.10546875 C-61.16394712 -4.30186898 -65.12270606 -3.53987456 -69.95703125 -1.55859375 C-72.34550371 -0.90553149 -73.68364365 -1.21400043 -76 -2 C-52.47794934 -11.68555027 -22.43814206 -13.45185912 0 0 Z " fill="#23306A" transform="translate(382,337)"/>
<path d="M0 0 C1.56240032 -0.02730408 3.1249427 -0.04653226 4.6875 -0.0625 C5.55761719 -0.07410156 6.42773438 -0.08570313 7.32421875 -0.09765625 C10 0 10 0 12.35546875 0.4765625 C17.04388649 1.40455065 21.8355 1.40104961 26.6015625 1.62109375 C30 2 30 2 33 4 C33 5.32 33 6.64 33 8 C27.68327576 10.65836212 17.99650125 9.7373365 12.26953125 8.328125 C10.48519134 7.61840631 8.73752746 6.81765998 7 6 C6.01 6 5.02 6 4 6 C2.68 6 1.36 6 0 6 C-1 3 -1 3 0 0 Z " fill="#03ACEE" transform="translate(128,357)"/>
<path d="M0 0 C0.7734375 0.495 0.7734375 0.495 1.5625 1 C0.6086409 4.53347804 -0.0580436 5.76423676 -3.22265625 7.73046875 C-4.30417969 8.21128906 -5.38570312 8.69210937 -6.5 9.1875 C-10.72948078 10.76944962 -10.72948078 10.76944962 -13.4375 14 C-16 14.625 -16 14.625 -18.4375 15 C-19.13824844 11.846632 -19.4375 9.27275026 -19.4375 6 C-21.4175 6.33 -23.3975 6.66 -25.4375 7 C-18.64679819 1.47343838 -8.64745726 -3.54767477 0 0 Z M1.5625 0 C4.5625 1 4.5625 1 4.5625 1 Z " fill="#108ED1" transform="translate(259.4375,434)"/>
<path d="M0 0 C0.99 0 1.98 0 3 0 C3 1.98 3 3.96 3 6 C2.01 6.33 1.02 6.66 0 7 C0 7.66 0 8.32 0 9 C-6.21627623 11.14002952 -11.41909577 12.35254844 -18 12 C-18.66 12 -19.32 12 -20 12 C-20 12.66 -20 13.32 -20 14 C-29.41002278 17.62870159 -29.41002278 17.62870159 -34 16 C-34 15.34 -34 14.68 -34 14 C-32.68 14 -31.36 14 -30 14 C-30 13.34 -30 12.68 -30 12 C-24.06561592 8.92291196 -19.70126536 7.51263525 -13 8 C-12.731875 7.38125 -12.46375 6.7625 -12.1875 6.125 C-11 4 -11 4 -8 2 C-5.95703125 1.8046875 -5.95703125 1.8046875 -3.8125 1.875 C-1.9253125 1.936875 -1.9253125 1.936875 0 2 C0 1.34 0 0.68 0 0 Z " fill="#19609C" transform="translate(207,203)"/>
<path d="M0 0 C0.93650391 -0.01611328 1.87300781 -0.03222656 2.83789062 -0.04882812 C3.74087891 -0.04947266 4.64386719 -0.05011719 5.57421875 -0.05078125 C6.38850342 -0.05376221 7.20278809 -0.05674316 8.04174805 -0.05981445 C10.81919773 0.3955786 12.12234566 1.60182181 14.3125 3.3125 C15.3025 3.3125 16.2925 3.3125 17.3125 3.3125 C16.9825 5.2925 16.6525 7.2725 16.3125 9.3125 C10.67042153 8.64797434 5.09524251 7.79006932 -0.5 6.8125 C-7.21369013 5.66215553 -13.88354997 4.74711355 -20.6875 4.3125 C-14.17716376 -0.02772416 -7.59603873 -0.02646703 0 0 Z " fill="#1D4481" transform="translate(276.6875,125.6875)"/>
<path d="M0 0 C1.29808594 0.16242188 2.59617188 0.32484375 3.93359375 0.4921875 C10.8727447 1.18280811 17.80919862 1.14972858 24.77416992 1.13037109 C27.03376151 1.12506745 29.29314926 1.13031417 31.55273438 1.13671875 C41.73385023 1.1408721 51.84422825 0.70493854 62 0 C59.35253906 2.97216797 59.35253906 2.97216797 56.1796875 3.22265625 C55.08914062 3.16980469 53.99859375 3.11695313 52.875 3.0625 C48.87160388 2.96086853 45.37038226 2.95686723 41.5 4 C35.74727229 5.52689221 29.90587753 5.16430571 24 5 C23.34 6.32 22.68 7.64 22 9 C14.39402528 8.62593567 8.76245522 6.42168675 2 3 C1.34 2.67 0.68 2.34 0 2 C0 1.34 0 0.68 0 0 Z " fill="#196DA5" transform="translate(144,413)"/>
<path d="M0 0 C0 0.66 0 1.32 0 2 C0.99 2 1.98 2 3 2 C3 2.66 3 3.32 3 4 C1.80246094 4.47308594 0.60492188 4.94617188 -0.62890625 5.43359375 C-14.84583175 11.1643792 -27.38905937 18.28512233 -40 27 C-40 25.02 -40 23.04 -40 21 C-39.38125 20.896875 -38.7625 20.79375 -38.125 20.6875 C-35.63473516 20.12474627 -35.63473516 20.12474627 -34 17 C-32.68 17 -31.36 17 -30 17 C-29.01 16.67 -28.02 16.34 -27 16 C-26.67 13.69 -26.34 11.38 -26 9 C-24.845 9.061875 -23.69 9.12375 -22.5 9.1875 C-17.69764326 9.1703793 -14.29213229 8.18371643 -10 6 C-8.86559222 3.42919865 -8.86559222 3.42919865 -9 1 C-5.846632 0.29925156 -3.27275026 0 0 0 Z " fill="#2165AA" transform="translate(362,368)"/>
<path d="M0 0 C9.2939077 4.80482673 16.65221967 15.45541067 21.64453125 24.3671875 C21.64453125 25.0271875 21.64453125 25.6871875 21.64453125 26.3671875 C20.98453125 26.3671875 20.32453125 26.3671875 19.64453125 26.3671875 C19.64453125 25.7071875 19.64453125 25.0471875 19.64453125 24.3671875 C18.98453125 24.3671875 18.32453125 24.3671875 17.64453125 24.3671875 C16.98453125 23.3771875 16.32453125 22.3871875 15.64453125 21.3671875 C14.98453125 21.6971875 14.32453125 22.0271875 13.64453125 22.3671875 C13.64453125 20.7171875 13.64453125 19.0671875 13.64453125 17.3671875 C12.98453125 17.0371875 12.32453125 16.7071875 11.64453125 16.3671875 C10.98453125 16.6971875 10.32453125 17.0271875 9.64453125 17.3671875 C7.97786458 17.3671875 6.31119792 17.3671875 4.64453125 17.3671875 C5.30453125 15.0571875 5.96453125 12.7471875 6.64453125 10.3671875 C5.32453125 10.3671875 4.00453125 10.3671875 2.64453125 10.3671875 C0.64052114 10.05887825 -1.36058641 9.72989338 -3.35546875 9.3671875 C-3.35546875 7.03385417 -3.35546875 4.70052083 -3.35546875 2.3671875 C-4.34546875 2.3671875 -5.33546875 2.3671875 -6.35546875 2.3671875 C-4.83172275 -0.68030449 -3.16122369 -0.84928398 0 0 Z " fill="#1F3C7C" transform="translate(307.35546875,101.6328125)"/>
<path d="M0 0 C0.99 0 1.98 0 3 0 C3.495 2.97 3.495 2.97 4 6 C3.34 6 2.68 6 2 6 C1.67 6.66 1.34 7.32 1 8 C-1.0625 8.625 -1.0625 8.625 -3 9 C-3.33 10.98 -3.66 12.96 -4 15 C-4.89332031 15.10828125 -4.89332031 15.10828125 -5.8046875 15.21875 C-8.79827258 16.28408277 -9.50077569 17.81280166 -11.125 20.5 C-13.81776765 24.90888383 -13.81776765 24.90888383 -16 26 C-16.144375 26.66 -16.28875 27.32 -16.4375 28 C-16.623125 28.66 -16.80875 29.32 -17 30 C-17.99 30.33 -18.98 30.66 -20 31 C-20.6496875 31.680625 -20.6496875 31.680625 -21.3125 32.375 C-23.61962115 34.59667222 -26.06834139 35.7524857 -29 37 C-29.66 36.67 -30.32 36.34 -31 36 C-30.43152344 35.5875 -29.86304688 35.175 -29.27734375 34.75 C-18.64943072 26.80124368 -11.80265427 16.70056376 -4.33105469 5.88769531 C-3.67218262 4.95328613 -3.67218262 4.95328613 -3 4 C-2.26765137 2.89156738 -2.26765137 2.89156738 -1.52050781 1.76074219 C-1.01874023 1.17969727 -0.51697266 0.59865234 0 0 Z " fill="#1B649A" transform="translate(196,112)"/>
<path d="M0 0 C0 0.99 0 1.98 0 3 C-0.7425 3.268125 -1.485 3.53625 -2.25 3.8125 C-4.96249056 4.84749252 -4.96249056 4.84749252 -6.83959961 6.43066406 C-10.94937656 9.41604616 -15.85552676 10.91806566 -20.5625 12.75 C-22.14321289 13.38615234 -22.14321289 13.38615234 -23.75585938 14.03515625 C-24.76583984 14.43089844 -25.77582031 14.82664063 -26.81640625 15.234375 C-27.73881104 15.59756836 -28.66121582 15.96076172 -29.61157227 16.33496094 C-32 17 -32 17 -35 16 C-17.9148854 3.6231007 -17.9148854 3.6231007 -10 4 C-8.41666667 2.58333333 -8.41666667 2.58333333 -7 1 C-4.5870449 0.3526218 -2.49412245 0 0 0 Z " fill="#206DA2" transform="translate(170,220)"/>
<path d="M0 0 C-0.33 0.99 -0.66 1.98 -1 3 C-2.33333333 3.33333333 -3.66666667 3.66666667 -5 4 C-5.33 4.99 -5.66 5.98 -6 7 C-5.443125 7.226875 -4.88625 7.45375 -4.3125 7.6875 C-1.36753316 9.35896766 0.68156544 11.55276352 3 14 C2.34 15.65 1.68 17.3 1 19 C-1.88575819 18.60196439 -2.82189513 18.20990931 -4.75 15.9375 C-5.1625 15.298125 -5.575 14.65875 -6 14 C-5.34 14 -4.68 14 -4 14 C-4 13.01 -4 12.02 -4 11 C-4.61875 11.185625 -5.2375 11.37125 -5.875 11.5625 C-8 12 -8 12 -10 11 C-10.59355614 8.35139573 -10.74209269 5.70802678 -11 3 C-9.73160474 2.49384702 -8.46016898 1.99530901 -7.1875 1.5 C-6.12595703 1.08234375 -6.12595703 1.08234375 -5.04296875 0.65625 C-3 0 -3 0 0 0 Z " fill="#0F72B5" transform="translate(152,160)"/>
<path d="M0 0 C5.66433566 1.63636364 5.66433566 1.63636364 7.5 3.625 C9.05373322 5.33968413 9.05373322 5.33968413 12.1875 5.1875 C13.115625 5.125625 14.04375 5.06375 15 5 C15.33 6.32 15.66 7.64 16 9 C16.99 9 17.98 9 19 9 C19.66 9.66 20.32 10.32 21 11 C21.66 10.67 22.32 10.34 23 10 C23.39832031 10.47050781 23.79664063 10.94101562 24.20703125 11.42578125 C26.3617393 13.31760553 27.89091882 13.66060789 30.6875 14.1875 C31.49574219 14.34605469 32.30398437 14.50460937 33.13671875 14.66796875 C34.05904297 14.83232422 34.05904297 14.83232422 35 15 C35 15.33 35 15.66 35 16 C22.392139 15.59975044 9.57697654 10.810247 -1 4 C-0.34 3.67 0.32 3.34 1 3 C0.67 2.01 0.34 1.02 0 0 Z " fill="#0B76B7" transform="translate(130,433)"/>
<path d="M0 0 C0.33 0.66 0.66 1.32 1 2 C1.94875 2.45375 2.8975 2.9075 3.875 3.375 C7.03199867 5.01663931 8.2921165 5.94378742 10 9 C10.6875 11.75 10.6875 11.75 11 14 C9.68 14 8.36 14 7 14 C6.67 14.66 6.34 15.32 6 16 C5.34 15.67 4.68 15.34 4 15 C4 13.68 4 12.36 4 11 C1.03 10.505 1.03 10.505 -2 10 C-1.67 8.35 -1.34 6.7 -1 5 C-2.32 4.67 -3.64 4.34 -5 4 C-5 3.01 -5 2.02 -5 1 C-2 0 -2 0 0 0 Z " fill="#02ADEE" transform="translate(89,401)"/>
<path d="M0 0 C0.66 0.99 1.32 1.98 2 3 C1.63110352 4.83496094 1.63110352 4.83496094 1 7 C0.91973255 8.87877624 0.89234128 10.7601615 0.90234375 12.640625 C0.90556641 13.71054687 0.90878906 14.78046875 0.91210938 15.8828125 C0.92048828 16.99398438 0.92886719 18.10515625 0.9375 19.25 C0.94201172 20.37664062 0.94652344 21.50328125 0.95117188 22.6640625 C0.96294603 25.44276217 0.9793916 28.22135409 1 31 C0.34 31 -0.32 31 -1 31 C-1.33 25.72 -1.66 20.44 -2 15 C-2.33 22.59 -2.66 30.18 -3 38 C-5.19490976 33.61018047 -5.34527317 30.33000316 -5.3125 25.5625 C-5.30976074 24.76642334 -5.30702148 23.97034668 -5.30419922 23.15014648 C-5.1653205 15.20133521 -4.50121112 6.75181668 0 0 Z " fill="#26AADB" transform="translate(104,300)"/>
<path d="M0 0 C0.66 0.33 1.32 0.66 2 1 C1.33613281 2.11117188 0.67226562 3.22234375 -0.01171875 4.3671875 C-4.61875214 12.11553836 -9.18233596 19.82216177 -13 28 C-13.33 28 -13.66 28 -14 28 C-14.49230769 20.73846154 -14.49230769 20.73846154 -12 17 C-11.34 16.34 -10.68 15.68 -10 15 C-11.32 15.33 -12.64 15.66 -14 16 C-9.84542161 10.08287321 -5.22741666 4.98860067 0 0 Z " fill="#18A9E0" transform="translate(101,256)"/>
<path d="M0 0 C0.33 0 0.66 0 1 0 C2.16620728 5.56980597 2.18360786 11.02443957 2.1875 16.6875 C2.19974609 17.63689453 2.21199219 18.58628906 2.22460938 19.56445312 C2.22750977 20.93053711 2.22750977 20.93053711 2.23046875 22.32421875 C2.23457764 23.15010498 2.23868652 23.97599121 2.24291992 24.8269043 C2 27 2 27 0 30 C-0.13277344 29.22914063 -0.26554687 28.45828125 -0.40234375 27.6640625 C-0.57894531 26.66117188 -0.75554687 25.65828125 -0.9375 24.625 C-1.11152344 23.62726563 -1.28554688 22.62953125 -1.46484375 21.6015625 C-1.87712062 19.03090344 -1.87712062 19.03090344 -3 17 C-3.66 22.61 -4.32 28.22 -5 34 C-5.33 34 -5.66 34 -6 34 C-6.2210949 31.04210873 -6.42740245 28.08447236 -6.625 25.125 C-6.68945312 24.28324219 -6.75390625 23.44148438 -6.8203125 22.57421875 C-6.871875 21.76855469 -6.9234375 20.96289062 -6.9765625 20.1328125 C-7.02893066 19.38918457 -7.08129883 18.64555664 -7.13525391 17.87939453 C-7 16 -7 16 -5 14 C-3.35 14.33 -1.7 14.66 0 15 C0 10.05 0 5.1 0 0 Z " fill="#293865" transform="translate(331,203)"/>
<path d="M0 0 C1.98 0 3.96 0 6 0 C5.44140625 1.8046875 5.44140625 1.8046875 4 4 C1.62249861 5.2284247 -0.57052097 6.20710946 -3.0625 7.125 C-3.74352783 7.38361816 -4.42455566 7.64223633 -5.1262207 7.90869141 C-14.30546227 11.32021312 -22.17054286 12.29937433 -32 12 C-32 11.67 -32 11.34 -32 11 C-27.545 10.505 -27.545 10.505 -23 10 C-23 9.34 -23 8.68 -23 8 C-22.34 8 -21.68 8 -21 8 C-21 7.34 -21 6.68 -21 6 C-18.69 6.66 -16.38 7.32 -14 8 C-14 7.34 -14 6.68 -14 6 C-8.25 5.875 -8.25 5.875 -6 7 C-6 6.34 -6 5.68 -6 5 C-4.34467377 3.98133771 -2.67739862 2.98189187 -1 2 C-0.67 1.34 -0.34 0.68 0 0 Z " fill="#1F6397" transform="translate(190,154)"/>
<path d="M0 0 C-1.07401108 2.91517292 -1.77810176 4.77810176 -4 7 C-4.99 7 -5.98 7 -7 7 C-7.33 7.99 -7.66 8.98 -8 10 C-8.99 10 -9.98 10 -11 10 C-11 9.34 -11 8.68 -11 8 C-16.445 7.505 -16.445 7.505 -22 7 C-22.33 7.66 -22.66 8.32 -23 9 C-25.97 9 -28.94 9 -32 9 C-32 8.67 -32 8.34 -32 8 C-31.10861328 7.79636841 -31.10861328 7.79636841 -30.19921875 7.58862305 C-27.46481195 6.96057063 -24.73243027 6.32409423 -22 5.6875 C-21.06542969 5.47416016 -20.13085938 5.26082031 -19.16796875 5.04101562 C-14.83449466 4.02583114 -10.65138144 2.94867498 -6.5 1.33203125 C-3 0 -3 0 0 0 Z " fill="#1C5A92" transform="translate(226,430)"/>
<path d="M0 0 C9.20337695 4.29338677 14.43017402 8.74391935 19 18 C19.875 21.625 19.875 21.625 20 24 C16.39540172 21.2193099 13.17693282 18.25839264 10 15 C9.236875 14.236875 8.47375 13.47375 7.6875 12.6875 C7.130625 12.130625 6.57375 11.57375 6 11 C6.99 10.34 7.98 9.68 9 9 C8.01 8.34 7.02 7.68 6 7 C6 6.01 6 5.02 6 4 C4.02 3.34 2.04 2.68 0 2 C0 1.34 0 0.68 0 0 Z " fill="#21467D" transform="translate(256,170)"/>
<path d="M0 0 C0.33 0.66 0.66 1.32 1 2 C1.680625 1.649375 2.36125 1.29875 3.0625 0.9375 C6.7087789 -0.22620603 9.28489978 0.27154898 13 1 C12.67 1.66 12.34 2.32 12 3 C10.68 3 9.36 3 8 3 C8 4.65 8 6.3 8 8 C5.87527424 8.05386629 3.75016348 8.09273071 1.625 8.125 C-0.15003906 8.15980469 -0.15003906 8.15980469 -1.9609375 8.1953125 C-5 8 -5 8 -7 6 C-6.030625 5.38125 -5.06125 4.7625 -4.0625 4.125 C-0.97164638 2.34321154 -0.97164638 2.34321154 0 0 Z " fill="#03ACED" transform="translate(171,355)"/>
<path d="M0 0 C0.33 0 0.66 0 1 0 C1 5.61 1 11.22 1 17 C1.99 17 2.98 17 4 17 C5.17571451 20.67410785 5.07366746 24.16929183 5 28 C4.34 28.33 3.68 28.66 3 29 C2.34 28.67 1.68 28.34 1 28 C1 26.68 1 25.36 1 24 C0.34 24 -0.32 24 -1 24 C-1.02887236 20.18751574 -1.04675492 16.3750593 -1.0625 12.5625 C-1.07087891 11.47388672 -1.07925781 10.38527344 -1.08789062 9.26367188 C-1.09111328 8.22919922 -1.09433594 7.19472656 -1.09765625 6.12890625 C-1.10289307 5.17056885 -1.10812988 4.21223145 -1.11352539 3.22485352 C-1 1 -1 1 0 0 Z " fill="#06ACEB" transform="translate(102,314)"/>
<path d="M0 0 C1.65 0 3.3 0 5 0 C-5.58298272 8.81915226 -25.67338144 15.96452574 -39.375 15.17578125 C-39.91125 15.11777344 -40.4475 15.05976563 -41 15 C-41 14.67 -41 14.34 -41 14 C-40.14728516 13.94392578 -40.14728516 13.94392578 -39.27734375 13.88671875 C-33.95301276 13.43339508 -29.88235331 12.30299684 -25 10 C-23.39125 9.4740625 -23.39125 9.4740625 -21.75 8.9375 C-18.83412601 8.07470233 -18.83412601 8.07470233 -16 6 C-12.8125 5.875 -12.8125 5.875 -10 6 C-9.67 5.34 -9.34 4.68 -9 4 C-5.65489648 2.37265234 -3.81164166 2 0 2 C0 1.34 0 0.68 0 0 Z " fill="#0F5DA0" transform="translate(249,431)"/>
<path d="M0 0 C-2.71394662 1.80929775 -3.98787457 2.26978778 -7 3 C-8.3479743 3.63654342 -9.68596724 4.29605388 -11 5 C-11 5.66 -11 6.32 -11 7 C-11.66 7 -12.32 7 -13 7 C-13 7.66 -13 8.32 -13 9 C-13.66 9 -14.32 9 -15 9 C-15.33 8.34 -15.66 7.68 -16 7 C-16.53625 7.309375 -17.0725 7.61875 -17.625 7.9375 C-20.3984957 9.17827439 -23.00042837 9.5909675 -26 10 C-24.80166539 6.40499616 -24.1957318 5.93937546 -21 4 C-18.02711466 2.7436328 -14.99873743 1.70629149 -11.9375 0.6875 C-11.12216797 0.39810547 -10.30683594 0.10871094 -9.46679688 -0.18945312 C-8.29020508 -0.58487305 -8.29020508 -0.58487305 -7.08984375 -0.98828125 C-6.37691162 -1.23102783 -5.66397949 -1.47377441 -4.92944336 -1.72387695 C-3 -2 -3 -2 0 0 Z " fill="#1D5890" transform="translate(232,406)"/>
<path d="M0 0 C-3.1649328 2.67802006 -6.0967198 3.6989066 -10 5 C-14.93977526 7.60969259 -19.49708338 10.63996848 -24.08203125 13.828125 C-26 15 -26 15 -28 15 C-28 15.99 -28 16.98 -28 18 C-31.96 18.495 -31.96 18.495 -36 19 C-29.59961936 12.23178139 -21.1918662 8.00425638 -13.0625 3.625 C-12.42401123 3.27920898 -11.78552246 2.93341797 -11.12768555 2.57714844 C-3.21983296 -1.60991648 -3.21983296 -1.60991648 0 0 Z " fill="#245A9C" transform="translate(354,365)"/>
<path d="M0 0 C-4.20704458 2.55820288 -7.85542271 2.07765096 -12.63671875 1.875 C-15.45740493 1.97983386 -17.40719169 2.3313288 -20.078125 3.0546875 C-26.11934923 4.49710213 -31.94185859 3.73953641 -38.0625 3.125 C-39.21427734 3.02058594 -40.36605469 2.91617187 -41.55273438 2.80859375 C-44.3698859 2.55142639 -47.18520781 2.28163888 -50 2 C-50 1.67 -50 1.34 -50 1 C-48.60261597 0.96241577 -48.60261597 0.96241577 -47.17700195 0.92407227 C-43.65625156 0.82783158 -40.13560623 0.72868221 -36.61499023 0.62768555 C-35.10330307 0.58488834 -33.59158442 0.54318624 -32.07983398 0.50268555 C-23.56236952 0.27370625 -15.11096572 -0.05907867 -6.62573242 -0.89868164 C-4.15435331 -0.99404401 -2.34101347 -0.74699896 0 0 Z " fill="#226597" transform="translate(206,414)"/>
<path d="M0 0 C-0.3125 2.375 -0.3125 2.375 -1 5 C-1.99 5.66 -2.98 6.32 -4 7 C-4.66 6.34 -5.32 5.68 -6 5 C-5.01 4.67 -4.02 4.34 -3 4 C-2.67 3.34 -2.34 2.68 -2 2 C-3.8253125 2.495 -3.8253125 2.495 -5.6875 3 C-11.7662494 4.37888565 -17.80124915 4.17245366 -24 4 C-23 2 -23 2 -21.2578125 1.40234375 C-20.20207031 1.17224609 -20.20207031 1.17224609 -19.125 0.9375 C-12.23488768 -0.60069851 -7.0333436 -0.93777915 0 0 Z " fill="#1D5891" transform="translate(233,425)"/>
<path d="M0 0 C-0.433125 0.7734375 -0.433125 0.7734375 -0.875 1.5625 C-2.14948165 4.13342716 -2.14948165 4.13342716 -2.9375 7.625 C-4 11 -4 11 -7 13 C-6.67 14.32 -6.34 15.64 -6 17 C-6.66 17 -7.32 17 -8 17 C-8 17.99 -8 18.98 -8 20 C-8.99 20 -9.98 20 -11 20 C-11.33 18.35 -11.66 16.7 -12 15 C-11.34 15 -10.68 15 -10 15 C-10.103125 14.175 -10.20625 13.35 -10.3125 12.5 C-9.89760151 7.85313689 -8.00509696 4.54686092 -5 1 C-2 0 -2 0 0 0 Z " fill="#0EAEE8" transform="translate(91,271)"/>
<path d="M0 0 C0 0.66 0 1.32 0 2 C0.99 2 1.98 2 3 2 C3 2.66 3 3.32 3 4 C-0.10339436 5.3143315 -3.20784568 6.62614781 -6.3125 7.9375 C-7.19357422 8.31068359 -8.07464844 8.68386719 -8.98242188 9.06835938 C-9.82998047 9.42607422 -10.67753906 9.78378906 -11.55078125 10.15234375 C-12.72120972 10.6472229 -12.72120972 10.6472229 -13.9152832 11.15209961 C-15.58576412 11.83152111 -17.28917912 12.42972637 -19 13 C-19 12.34 -19 11.68 -19 11 C-18.36191406 10.69707031 -17.72382813 10.39414062 -17.06640625 10.08203125 C-16.24011719 9.66308594 -15.41382813 9.24414062 -14.5625 8.8125 C-13.73878906 8.40644531 -12.91507812 8.00039063 -12.06640625 7.58203125 C-9.75309288 6.13366813 -9.75309288 6.13366813 -9.21484375 3.32421875 C-9.14394531 2.55722656 -9.07304687 1.79023438 -9 1 C-5.846632 0.29925156 -3.27275026 0 0 0 Z " fill="#245796" transform="translate(362,368)"/>
<path d="M0 0 C2.83265927 0.31125802 4.92380713 1.39981161 7.57421875 2.546875 C12.63749389 4.47239532 17.45507479 4.37148774 22.8125 4.25 C23.7813916 4.23904297 24.7502832 4.22808594 25.74853516 4.21679688 C32.1933195 4.11709616 38.60557282 3.85666967 45 3 C45 3.33 45 3.66 45 4 C37.15215112 5.95162875 29.62777033 6.33501611 21.5625 6.3125 C20.41201172 6.32861328 19.26152344 6.34472656 18.07617188 6.36132812 C10.59311685 6.36556782 4.09926967 5.37420849 -3 3 C-1.75 1.4375 -1.75 1.4375 0 0 Z " fill="#22B2E6" transform="translate(131,361)"/>
<path d="M0 0 C0.99 0.33 1.98 0.66 3 1 C2.67 3.31 2.34 5.62 2 8 C0.68 8 -0.64 8 -2 8 C-2 8.66 -2 9.32 -2 10 C-3.32 10.33 -4.64 10.66 -6 11 C-7.32 9.02 -8.64 7.04 -10 5 C-9.01 5 -8.02 5 -7 5 C-7 4.34 -7 3.68 -7 3 C-5.5459375 2.5359375 -5.5459375 2.5359375 -4.0625 2.0625 C-1.15934208 1.30476658 -1.15934208 1.30476658 0 0 Z " fill="#155B9D" transform="translate(221,196)"/>
<path d="M0 0 C0.82886719 0.185625 1.65773437 0.37125 2.51171875 0.5625 C3.10597656 0.706875 3.70023438 0.85125 4.3125 1 C1.12695408 1.96541545 -1.57502707 2.05239684 -4.890625 1.87890625 C-6.36015625 1.80639648 -6.36015625 1.80639648 -7.859375 1.73242188 C-9.38304687 1.64831055 -9.38304687 1.64831055 -10.9375 1.5625 C-12.484375 1.48418945 -12.484375 1.48418945 -14.0625 1.40429688 C-16.60449039 1.27484366 -19.14606593 1.13988672 -21.6875 1 C-21.6875 1.66 -21.6875 2.32 -21.6875 3 C-30.1025 3.495 -30.1025 3.495 -38.6875 4 C-38.6875 3.67 -38.6875 3.34 -38.6875 3 C-35.25313469 2.31648995 -31.81463415 1.65643566 -28.375 1 C-27.41787109 0.80921875 -26.46074219 0.6184375 -25.47460938 0.421875 C-16.98429059 -1.17899319 -8.50403759 -1.97195075 0 0 Z " fill="#255182" transform="translate(249.6875,168)"/>
<path d="M0 0 C-0.75 1.9375 -0.75 1.9375 -2 4 C-4.125 4.75 -4.125 4.75 -6 5 C-6.33 7.31 -6.66 9.62 -7 12 C-7.66 11.67 -8.32 11.34 -9 11 C-9.66 11.66 -10.32 12.32 -11 13 C-11.66 11.68 -12.32 10.36 -13 9 C-6.90340909 -0.46022727 -6.90340909 -0.46022727 0 0 Z " fill="#1A5A94" transform="translate(214,99)"/>
<path d="M0 0 C-0.33 0.66 -0.66 1.32 -1 2 C-1.33 2.99 -1.66 3.98 -2 5 C-5.86083844 7.01018861 -9.73136379 8.12945267 -14.0625 7.6875 C-14.701875 7.460625 -15.34125 7.23375 -16 7 C-16 6.34 -16 5.68 -16 5 C-14.68 5 -13.36 5 -12 5 C-12 4.34 -12 3.68 -12 3 C-10.5682384 2.30062798 -9.12932968 1.61587282 -7.6875 0.9375 C-6.88699219 0.55464844 -6.08648437 0.17179688 -5.26171875 -0.22265625 C-3 -1 -3 -1 0 0 Z " fill="#1467A8" transform="translate(189,212)"/>
<path d="M0 0 C8.18745378 0.42348899 18.56954137 2.14821352 24.9140625 7.6640625 C25.27242188 8.10492188 25.63078125 8.54578125 26 9 C24.35 9.99 22.7 10.98 21 12 C20.979375 11.401875 20.95875 10.80375 20.9375 10.1875 C20.10475951 7.61137896 20.10475951 7.61137896 16.6875 6.25 C13.01755684 4.78597381 13.01755684 4.78597381 9 5 C8.67 4.34 8.34 3.68 8 3 C6.10466658 2.53476937 6.10466658 2.53476937 3.9375 2.375 C2.638125 2.25125 1.33875 2.1275 0 2 C0 1.34 0 0.68 0 0 Z " fill="#25285C" transform="translate(356,329)"/>
<path d="M0 0 C7.31232092 0.75644699 7.31232092 0.75644699 11 2.0625 C14.84154041 3.26298138 17.97561571 3.06490942 22 3 C23.34332728 3.29044914 24.68225804 3.60955794 26 4 C26.99 4 27.98 4 29 4 C29.66 4.66 30.32 5.32 31 6 C30 7 30 7 27.65625 7.0546875 C17.91621902 6.50018079 9.23850407 3.99836479 0 1 C0 0.67 0 0.34 0 0 Z " fill="#21669A" transform="translate(160,421)"/>
<path d="M0 0 C2.8125 0.375 2.8125 0.375 4.8125 1.375 C4.8125 2.695 4.8125 4.015 4.8125 5.375 C-0.23218729 7.58974076 -3.04660687 7.22572153 -8.1875 5.375 C-4.02083333 0.47303922 -4.02083333 0.47303922 0 0 Z " fill="#233474" transform="translate(403.1875,367.625)"/>
<path d="M0 0 C1.03898437 0.53109375 2.07796875 1.0621875 3.1484375 1.609375 C9.99598689 5.08574729 16.78172107 8.5162383 23.984375 11.2109375 C26.06115053 12.02393878 28.02062292 12.97464701 30 14 C28.54364629 14.22174933 27.08477044 14.42698698 25.625 14.625 C24.81289062 14.74101562 24.00078125 14.85703125 23.1640625 14.9765625 C22.44992188 14.98429687 21.73578125 14.99203125 21 15 C20.34 14.34 19.68 13.68 19 13 C16.18896795 10.60541714 13.35212829 9.28183784 9.94921875 7.88671875 C6.45160167 6.2956184 3.02306981 4.3791952 0 2 C0 1.34 0 0.68 0 0 Z " fill="#2573A2" transform="translate(117,424)"/>
<path d="M0 0 C0.33 0.99 0.66 1.98 1 3 C0.01 4.485 0.01 4.485 -1 6 C-1.33 6.99 -1.66 7.98 -2 9 C-2.721875 8.835 -3.44375 8.67 -4.1875 8.5 C-6.86427545 8.02412881 -9.28949487 7.922557 -12 8 C-11 5 -11 5 -8.8125 3.3125 C-5.63225084 1.82838372 -3.46785727 1.75805647 0 2 C0 1.34 0 0.68 0 0 Z " fill="#1B4E8A" transform="translate(257,391)"/>
<path d="M0 0 C2.31 0 4.62 0 7 0 C8.11003253 3.3300976 7.9343162 3.97843441 6.75 7.125 C6.49734375 7.82882813 6.2446875 8.53265625 5.984375 9.2578125 C5 11 5 11 2 12 C2 12.66 2 13.32 2 14 C-1.3171411 15.4216319 -4.44219804 16.39009109 -8 17 C-8 16.34 -8 15.68 -8 15 C-7.38511719 14.74605469 -6.77023438 14.49210938 -6.13671875 14.23046875 C-5.32847656 13.88628906 -4.52023438 13.54210937 -3.6875 13.1875 C-2.88699219 12.85105469 -2.08648437 12.51460937 -1.26171875 12.16796875 C2.7159305 10.11388045 3.79913849 8.62372786 5.1875 4.3125 C5.455625 3.219375 5.72375 2.12625 6 1 C1.545 2.485 1.545 2.485 -3 4 C-2.67 3.34 -2.34 2.68 -2 2 C-1.34 2 -0.68 2 0 2 C0 1.34 0 0.68 0 0 Z " fill="#245889" transform="translate(211,115)"/>
<path d="M0 0 C-1.65 0.66 -3.3 1.32 -5 2 C-3.02 2.66 -1.04 3.32 1 4 C1 4.33 1 4.66 1 5 C-4.75098214 5.10414253 -10.35450392 5.20116938 -16 4 C-16.33 3.34 -16.66 2.68 -17 2 C-14.73139163 1.4695592 -12.46001511 0.95094566 -10.1875 0.4375 C-8.29064453 0.00244141 -8.29064453 0.00244141 -6.35546875 -0.44140625 C-3 -1 -3 -1 0 0 Z " fill="#235A8A" transform="translate(205,386)"/>
<path d="M0 0 C2.31 0.66 4.62 1.32 7 2 C7 2.66 7 3.32 7 4 C8.65 4.33 10.3 4.66 12 5 C11.01 5.99 10.02 6.98 9 8 C9.33 8.99 9.66 9.98 10 11 C8.35 10.67 6.7 10.34 5 10 C5 8.35 5 6.7 5 5 C4.01 5 3.02 5 2 5 C1.34 3.35 0.68 1.7 0 0 Z " fill="#07AFED" transform="translate(112,349)"/>
<path d="M0 0 C1.98 0 3.96 0 6 0 C3.70256687 2.29743313 1.75550897 3.10478187 -1.2265625 4.3828125 C-2.7734375 5.04990234 -2.7734375 5.04990234 -4.3515625 5.73046875 C-5.43179688 6.19066406 -6.51203125 6.65085937 -7.625 7.125 C-9.25695312 7.82689453 -9.25695312 7.82689453 -10.921875 8.54296875 C-13.6127837 9.6995874 -16.30552047 10.85173037 -19 12 C-19.33 11.34 -19.66 10.68 -20 10 C-19.34 10 -18.68 10 -18 10 C-18 9.34 -18 8.68 -18 8 C-16.68 7.67 -15.36 7.34 -14 7 C-14 6.34 -14 5.68 -14 5 C-11.03 5.495 -11.03 5.495 -8 6 C-8 5.34 -8 4.68 -8 4 C-6.68 4 -5.36 4 -4 4 C-4 3.34 -4 2.68 -4 2 C-2.68 2 -1.36 2 0 2 C0 1.34 0 0.68 0 0 Z " fill="#2395CA" transform="translate(228,341)"/>
<path d="M0 0 C0.99 0 1.98 0 3 0 C3.33 1.98 3.66 3.96 4 6 C3.34 6 2.68 6 2 6 C1.67 6.66 1.34 7.32 1 8 C-1.5625 8.625 -1.5625 8.625 -4 9 C-3.47557578 5.2241456 -2.67345333 2.77627845 0 0 Z M-5 9 C-3.875 12.75 -3.875 12.75 -5 15 C-5.38218767 13.34385343 -5.71395102 11.67542976 -6 10 C-5.67 9.67 -5.34 9.34 -5 9 Z " fill="#15619E" transform="translate(196,112)"/>
<path d="M0 0 C5.37722282 2.50318993 9.59391956 5.03452761 14 9 C13.01 9.495 13.01 9.495 12 10 C11.01 9.67 10.02 9.34 9 9 C9 8.34 9 7.68 9 7 C8.34 7 7.68 7 7 7 C6.67 8.32 6.34 9.64 6 11 C4.9944239 9.54550599 3.99569565 8.08627557 3 6.625 C2.443125 5.81289062 1.88625 5.00078125 1.3125 4.1640625 C0 2 0 2 0 0 Z " fill="#243968" transform="translate(296,157)"/>
<path d="M0 0 C0.66 0.33 1.32 0.66 2 1 C-2.26814076 3.29022187 -6.33339182 4.73447914 -11 6 C-14.00981485 6.97121821 -17.0058587 7.98158459 -20 9 C-20 7.35 -20 5.7 -20 4 C-18.80761719 3.79503906 -17.61523438 3.59007812 -16.38671875 3.37890625 C-14.82029147 3.10689193 -13.25388636 2.83474985 -11.6875 2.5625 C-10.90181641 2.42779297 -10.11613281 2.29308594 -9.30664062 2.15429688 C-8.54931641 2.02216797 -7.79199219 1.89003906 -7.01171875 1.75390625 C-6.31522217 1.63345947 -5.61872559 1.5130127 -4.90112305 1.38891602 C-2.7904669 0.99664201 -2.7904669 0.99664201 0 0 Z " fill="#1F6E9F" transform="translate(158,151)"/>
<path d="M0 0 C-0.99 0.33 -1.98 0.66 -3 1 C-2.14535156 1.12117187 -1.29070312 1.24234375 -0.41015625 1.3671875 C1.24693359 1.61855469 1.24693359 1.61855469 2.9375 1.875 C4.03964844 2.03742188 5.14179688 2.19984375 6.27734375 2.3671875 C7.62505859 2.68042969 7.62505859 2.68042969 9 3 C9.33 3.66 9.66 4.32 10 5 C1.99305886 4.4017071 -6.00605711 3.7529365 -14 3 C-9.7368213 0.15788087 -5.03577274 -2.0143091 0 0 Z " fill="#26436F" transform="translate(270,127)"/>
<path d="M0 0 C0.99 0.33 1.98 0.66 3 1 C3.66 4.3 4.32 7.6 5 11 C4.2575 10.649375 3.515 10.29875 2.75 9.9375 C-0.18064999 8.66081932 -0.18064999 8.66081932 -4 10 C-2.68 6.7 -1.36 3.4 0 0 Z " fill="#17599A" transform="translate(219,117)"/>
<path d="M0 0 C0.66 0.99 1.32 1.98 2 3 C2.99 3.66 3.98 4.32 5 5 C1.7 7.64 -1.6 10.28 -5 13 C-5.66 12.67 -6.32 12.34 -7 12 C-4.69 8.04 -2.38 4.08 0 0 Z " fill="#1F3C70" transform="translate(289,287)"/>
<path d="M0 0 C2.64 0 5.28 0 8 0 C5.1485357 1.9009762 2.70289524 2.96265899 -0.5 4.125 C-1.4590625 4.47820312 -2.418125 4.83140625 -3.40625 5.1953125 C-6 6 -6 6 -9 6 C-9 4.68 -9 3.36 -9 2 C-3.375 0.875 -3.375 0.875 0 2 C0 1.34 0 0.68 0 0 Z " fill="#1896D0" transform="translate(233,449)"/>
<path d="M0 0 C-0.33 1.65 -0.66 3.3 -1 5 C-10.41002278 7.11161731 -10.41002278 7.11161731 -15 8 C-15.33 8.99 -15.66 9.98 -16 11 C-16 10.34 -16 9.68 -16 9 C-16.66 8.67 -17.32 8.34 -18 8 C-15.3773768 6.66180502 -12.75213401 5.3292849 -10.125 4 C-9.00544922 3.42765625 -9.00544922 3.42765625 -7.86328125 2.84375 C-7.14785156 2.4828125 -6.43242187 2.121875 -5.6953125 1.75 C-5.03547363 1.41484375 -4.37563477 1.0796875 -3.69580078 0.734375 C-2 0 -2 0 0 0 Z " fill="#1B96CD" transform="translate(222,335)"/>
<path d="M0 0 C2.475 0.99 2.475 0.99 5 2 C5 2.66 5 3.32 5 4 C5.66 4.33 6.32 4.66 7 5 C7.72159424 6.64363134 8.39351421 8.31050386 9 10 C9.99 10 10.98 10 12 10 C12 12.97 12 15.94 12 19 C9.77375192 16.1310553 7.84867941 13.18696078 6 10.0625 C5.505 9.22847656 5.01 8.39445313 4.5 7.53515625 C4.005 6.69855469 3.51 5.86195313 3 5 C2.00102039 3.33272153 1.00131444 1.6658773 0 0 Z " fill="#24315F" transform="translate(328,160)"/>
<path d="M0 0 C4.03717996 2.92713223 6.59374897 5.95727243 9.3125 10.125 C10.00988281 11.17945312 10.70726562 12.23390625 11.42578125 13.3203125 C13 16 13 16 13 18 C12.34 18 11.68 18 11 18 C11 17.34 11 16.68 11 16 C10.34 16 9.68 16 9 16 C8.34 15.01 7.68 14.02 7 13 C6.01 13.495 6.01 13.495 5 14 C5.04125 13.2575 5.0825 12.515 5.125 11.75 C4.99384899 8.86467775 4.61138093 7.37466663 3 5 C2.01 4.67 1.02 4.34 0 4 C0 2.68 0 1.36 0 0 Z " fill="#24356B" transform="translate(316,110)"/>
<path d="M0 0 C-0.33 3.3 -0.66 6.6 -1 10 C-2.65 10.33 -4.3 10.66 -6 11 C-5.50928382 4.62068966 -5.50928382 4.62068966 -3 1.5625 C-1 0 -1 0 0 0 Z " fill="#01ACF1" transform="translate(79,373)"/>
<path d="M0 0 C0.66 0.33 1.32 0.66 2 1 C-0.31 4.96 -2.62 8.92 -5 13 C-5.66 12.01 -6.32 11.02 -7 10 C-8.32 10.99 -9.64 11.98 -11 13 C-9.46356148 9.31930113 -7.21849055 7.01224796 -4.375 4.25 C-3.55773437 3.45078125 -2.74046875 2.6515625 -1.8984375 1.828125 C-0.95871094 0.92320312 -0.95871094 0.92320312 0 0 Z " fill="#2CA7D5" transform="translate(101,256)"/>
<path d="M0 0 C0.70133599 1.57725347 1.385583 3.16211333 2.0625 4.75 C2.44535156 5.63171875 2.82820313 6.5134375 3.22265625 7.421875 C4.04600008 10.15256309 3.9773992 11.36901347 3 14 C2.67 12.02 2.34 10.04 2 8 C1.34 8 0.68 8 0 8 C0 6.68 0 5.36 0 4 C-1.65 4.66 -3.3 5.32 -5 6 C-5.66 5.34 -6.32 4.68 -7 4 C-2.25 0 -2.25 0 0 0 Z " fill="#234A7D" transform="translate(255,39)"/>
<path d="M0 0 C5.59363406 4.06133537 10.85963514 8.3791401 16 13 C11.59869962 13 8.98661739 11.92290911 5.76171875 8.90625 C4.73498047 7.71515625 4.73498047 7.71515625 3.6875 6.5 C2.99011719 5.7059375 2.29273437 4.911875 1.57421875 4.09375 C0 2 0 2 0 0 Z " fill="#1484BD" transform="translate(100,410)"/>
<path d="M0 0 C0.99 0.33 1.98 0.66 3 1 C2.67 2.65 2.34 4.3 2 6 C-5.625 8.125 -5.625 8.125 -9 7 C-7.33784732 5.66104368 -5.67036393 4.32869858 -4 3 C-3.29875 2.401875 -2.5975 1.80375 -1.875 1.1875 C-1.25625 0.795625 -0.6375 0.40375 0 0 Z " fill="#1A4D8F" transform="translate(260,360)"/>
<path d="M0 0 C0 0.99 0 1.98 0 3 C-1.66666667 3.66666667 -3.33333333 4.33333333 -5 5 C-6.2684375 5.556875 -6.2684375 5.556875 -7.5625 6.125 C-10 7 -10 7 -14 7 C-14 6.01 -14 5.02 -14 4 C-13.21625 3.87625 -12.4325 3.7525 -11.625 3.625 C-8.85942178 3.20882007 -8.85942178 3.20882007 -7 1 C-4.60938484 0.40234621 -2.46474039 0 0 0 Z " fill="#136DAB" transform="translate(170,220)"/>
<path d="M0 0 C-1.12073862 0.83905565 -2.24674547 1.67107831 -3.375 2.5 C-4.31472656 3.19609375 -4.31472656 3.19609375 -5.2734375 3.90625 C-7 5 -7 5 -9 5 C-9 5.99 -9 6.98 -9 8 C-11.64 8.33 -14.28 8.66 -17 9 C-14.21022965 6.02899167 -11.41851087 3.80340857 -7.9375 1.6875 C-7.08027344 1.15511719 -6.22304688 0.62273437 -5.33984375 0.07421875 C-3 -1 -3 -1 0 0 Z " fill="#2268AB" transform="translate(335,375)"/>
<path d="M0 0 C0.77923828 0.00902344 1.55847656 0.01804687 2.36132812 0.02734375 C4.26185447 0.05066309 6.16222008 0.08652414 8.0625 0.125 C8.0625 0.455 8.0625 0.785 8.0625 1.125 C4.83426021 1.63110903 1.60477635 2.12879907 -1.625 2.625 C-2.53701172 2.76808594 -3.44902344 2.91117187 -4.38867188 3.05859375 C-5.71801758 3.26162109 -5.71801758 3.26162109 -7.07421875 3.46875 C-7.88592529 3.59443359 -8.69763184 3.72011719 -9.53393555 3.84960938 C-12.02283405 4.13477723 -14.43456689 4.17174739 -16.9375 4.125 C-15.9375 2.125 -15.9375 2.125 -12.93359375 1.0078125 C-8.61397183 -0.12038929 -4.43779282 -0.09887113 0 0 Z " fill="#297AB0" transform="translate(301.9375,318.875)"/>
<path d="M0 0 C1.98 0 3.96 0 6 0 C5.773125 0.598125 5.54625 1.19625 5.3125 1.8125 C4.75181137 4.03345767 4.75181137 4.03345767 6.125 5.75 C8.53854651 7.35903101 10.15673536 7.23053497 13 7 C12.67 7.99 12.34 8.98 12 10 C13.32 10.33 14.64 10.66 16 11 C14 12 14 12 12.265625 11.46875 C6.95466291 8.91619458 3.36758571 5.86003846 0 1 C0 0.67 0 0.34 0 0 Z " fill="#1F6D9C" transform="translate(142,171)"/>
<path d="M0 0 C0 5.33836002 -2.34962733 8.74861169 -5.625 12.8125 C-6.25664062 13.60269531 -6.88828125 14.39289063 -7.5390625 15.20703125 C-8.26222656 16.09455078 -8.26222656 16.09455078 -9 17 C-9.99 16.67 -10.98 16.34 -12 16 C-8 10.66666667 -4 5.33333333 0 0 Z " fill="#205F91" transform="translate(191,119)"/>
<path d="M0 0 C0.66 0.66 1.32 1.32 2 2 C-9.33712984 10.6309795 -9.33712984 10.6309795 -16 13 C-16 12.34 -16 11.68 -16 11 C-15.34 11 -14.68 11 -14 11 C-13.67 10.01 -13.34 9.02 -13 8 C-11.02 7.67 -9.04 7.34 -7 7 C-7 6.34 -7 5.68 -7 5 C-6.01 5 -5.02 5 -4 5 C-4 4.34 -4 3.68 -4 3 C-3.01 3 -2.02 3 -1 3 C-0.67 2.01 -0.34 1.02 0 0 Z " fill="#125195" transform="translate(272,417)"/>
<path d="M0 0 C3.18019683 2.9238411 5.25351309 5.83401169 7.3125 9.625 C7.84488281 10.58664062 8.37726563 11.54828125 8.92578125 12.5390625 C9.28027344 13.35117187 9.63476562 14.16328125 10 15 C9.67 15.66 9.34 16.32 9 17 C8.01 16.67 7.02 16.34 6 16 C4.8125 12.4375 4.8125 12.4375 4 9 C3.34 9 2.68 9 2 9 C1.34 6.03 0.68 3.06 0 0 Z " fill="#25275E" transform="translate(412,350)"/>
<path d="M0 0 C1.32 1.65 2.64 3.3 4 5 C3.67 5.66 3.34 6.32 3 7 C1.68 7 0.36 7 -1 7 C-1.33 8.32 -1.66 9.64 -2 11 C-6 4.375 -6 4.375 -6 1 C-5.34 1 -4.68 1 -4 1 C-4 2.32 -4 3.64 -4 5 C-3.01 5 -2.02 5 -1 5 C-0.67 3.35 -0.34 1.7 0 0 Z " fill="#1DA8DB" transform="translate(107,337)"/>
<path d="M0 0 C0.33 0 0.66 0 1 0 C1.33 3.63 1.66 7.26 2 11 C1.01 11.495 1.01 11.495 0 12 C-0.68931344 14.34907875 -0.68931344 14.34907875 -1.125 17.0625 C-1.29257813 17.98160156 -1.46015625 18.90070313 -1.6328125 19.84765625 C-1.75398438 20.55792969 -1.87515625 21.26820313 -2 22 C-2.33 22 -2.66 22 -3 22 C-3.39363688 14.25847464 -1.94210433 7.47941368 0 0 Z " fill="#1CACDD" transform="translate(68,309)"/>
<path d="M0 0 C1.32 0.66 2.64 1.32 4 2 C2.82255415 5.53233755 2.04394359 5.86308075 -1.0625 7.6875 C-2.16271484 8.34298828 -2.16271484 8.34298828 -3.28515625 9.01171875 C-3.85105469 9.33785156 -4.41695313 9.66398437 -5 10 C-5 8.02 -5 6.04 -5 4 C-4.0409375 3.8453125 -4.0409375 3.8453125 -3.0625 3.6875 C-2.381875 3.460625 -1.70125 3.23375 -1 3 C-0.67 2.01 -0.34 1.02 0 0 Z " fill="#236EAC" transform="translate(327,385)"/>
<path d="M0 0 C0 0.66 0 1.32 0 2 C-1.0209375 2.12375 -1.0209375 2.12375 -2.0625 2.25 C-4.71768543 2.92791968 -6.36780566 3.68912448 -8.6875 5.0625 C-12 7 -12 7 -14 7 C-14 6.01 -14 5.02 -14 4 C-13.34 4 -12.68 4 -12 4 C-12 3.01 -12 2.02 -12 1 C-8.0186217 -0.3271261 -4.14954773 -0.06915913 0 0 Z " fill="#165D9F" transform="translate(220,112)"/>
<path d="M0 0 C2.76757806 1.1275318 4.25608767 2.26282682 6.375 4.4375 C8.87437952 7.14417467 8.87437952 7.14417467 12.1875 8.5625 C15.18072433 10.09237022 15.9274793 10.88968998 17 14 C12.19556743 12.51142813 9.25334099 9.82136612 5.6875 6.4375 C5.13771484 5.93025391 4.58792969 5.42300781 4.02148438 4.90039062 C2.6560137 3.62651674 1.32468546 2.31623451 0 1 C0 0.67 0 0.34 0 0 Z " fill="#26A8DC" transform="translate(102,429)"/>
<path d="M0 0 C3.3 0 6.6 0 10 0 C9.34 1.65 8.68 3.3 8 5 C4.5625 4.1875 4.5625 4.1875 1 3 C0.67 2.01 0.34 1.02 0 0 Z " fill="#106DAE" transform="translate(158,417)"/>
<path d="M0 0 C0.66 0.66 1.32 1.32 2 2 C1.67 2.66 1.34 3.32 1 4 C0.34 4 -0.32 4 -1 4 C-1.33 3.34 -1.66 2.68 -2 2 C-2.53625 2.309375 -3.0725 2.61875 -3.625 2.9375 C-6.3984957 4.17827439 -9.00042837 4.5909675 -12 5 C-9.94192831 -1.17421506 -5.52734395 -0.35094247 0 0 Z " fill="#165D9C" transform="translate(218,411)"/>
<path d="M0 0 C-0.33 0.99 -0.66 1.98 -1 3 C1.64 3 4.28 3 7 3 C7 3.33 7 3.66 7 4 C0.58311325 4.10349817 -5.62694402 3.74507544 -12 3 C-7.86112344 0.24074896 -4.92824278 -0.13689563 0 0 Z " fill="#1EA7DF" transform="translate(177,458)"/>
<path d="M0 0 C2.31 0.66 4.62 1.32 7 2 C3.99390278 4.00406482 1.40757305 5.03076258 -2 6.1875 C-3.051875 6.55230469 -4.10375 6.91710937 -5.1875 7.29296875 C-8 8 -8 8 -11 7 C-7.14243493 4.84694043 -4.44870215 3.60746746 0 4 C-0.33 3.01 -0.66 2.02 -1 1 C-0.67 0.67 -0.34 0.34 0 0 Z " fill="#226093" transform="translate(187,213)"/>
<path d="M0 0 C3.77299157 2.10585576 6.05977444 5.12278571 8.6875 8.5 C6.02083333 7.16666667 3.35416667 5.83333333 0.6875 4.5 C0.6875 3.84 0.6875 3.18 0.6875 2.5 C-1.6225 2.5 -3.9325 2.5 -6.3125 2.5 C-4.81467467 -0.49565066 -3.14941094 -0.68095372 0 0 Z " fill="#23396D" transform="translate(307.3125,101.5)"/>
<path d="M0 0 C1.98 0 3.96 0 6 0 C6 0.66 6 1.32 6 2 C4.68 2 3.36 2 2 2 C2 2.66 2 3.32 2 4 C3.32 4.33 4.64 4.66 6 5 C1.25 6.125 1.25 6.125 -1 5 C-0.67 3.35 -0.34 1.7 0 0 Z " fill="#1A548F" transform="translate(234,402)"/>
<path d="M0 0 C-0.66 1.65 -1.32 3.3 -2 5 C-7.94 5.495 -7.94 5.495 -14 6 C-11.47732009 4.31821339 -9.18908177 3.09893258 -6.4375 1.875 C-5.65246094 1.52179688 -4.86742187 1.16859375 -4.05859375 0.8046875 C-2 0 -2 0 0 0 Z " fill="#1B9CCF" transform="translate(203,344)"/>
<path d="M0 0 C3.70722086 3.19588005 5.40645479 6.38710598 7 11 C6.67 11.99 6.34 12.98 6 14 C2.96165442 11.54972131 2.06688023 10.34656122 1.3125 6.4375 C1.209375 5.303125 1.10625 4.16875 1 3 C0.67 2.01 0.34 1.02 0 0 Z " fill="#253F6B" transform="translate(269,180)"/>
<path d="M0 0 C0.66 0.33 1.32 0.66 2 1 C2.625 4.0625 2.625 4.0625 3 7 C0.03 6.505 0.03 6.505 -3 6 C-1.125 1.125 -1.125 1.125 0 0 Z M-4 6 C-3 10 -3 10 -3 10 Z " fill="#03ADEF" transform="translate(81,382)"/>
<path d="M0 0 C0.99 0.33 1.98 0.66 3 1 C4.32 1 5.64 1 7 1 C7 1.66 7 2.32 7 3 C3.12315913 4.19287411 0.08378077 5 -4 5 C-3.34 4.01 -2.68 3.02 -2 2 C-1.34 2 -0.68 2 0 2 C0 1.34 0 0.68 0 0 Z " fill="#1A4F8E" transform="translate(253,376)"/>
<path d="M0 0 C0.66 0 1.32 0 2 0 C2.66 1.98 3.32 3.96 4 6 C3.34 6 2.68 6 2 6 C2 6.99 2 7.98 2 9 C1.01 9 0.02 9 -1 9 C-1.33 7.35 -1.66 5.7 -2 4 C-1.34 4 -0.68 4 0 4 C0 2.68 0 1.36 0 0 Z " fill="#02ADED" transform="translate(81,282)"/>
<path d="M0 0 C4.38259368 1.33912585 6.54093925 3.12225036 9 7 C8.67 7.99 8.34 8.98 8 10 C7.773125 9.195625 7.54625 8.39125 7.3125 7.5625 C6.879375 6.716875 6.44625 5.87125 6 5 C3.45224694 4.10613836 3.45224694 4.10613836 1 4 C0.67 2.68 0.34 1.36 0 0 Z " fill="#1E4F80" transform="translate(230,178)"/>
<path d="M0 0 C1.32 0 2.64 0 4 0 C4.33 1.32 4.66 2.64 5 4 C0.56923077 6.09230769 0.56923077 6.09230769 -2.3125 5.625 C-2.869375 5.41875 -3.42625 5.2125 -4 5 C-2.25 2.5 -2.25 2.5 0 0 Z " fill="#1D4382" transform="translate(288,58)"/>
<path d="M0 0 C2 3 2 3 1.7578125 5.04296875 C1.171875 7.02864583 0.5859375 9.01432292 0 11 C-0.99 10.67 -1.98 10.34 -3 10 C-2.25 3.375 -2.25 3.375 0 0 Z " fill="#35B8E1" transform="translate(104,300)"/>
<path d="M0 0 C2.31 0.66 4.62 1.32 7 2 C7 1.34 7 0.68 7 0 C8.98 0 10.96 0 13 0 C12.01 1.485 12.01 1.485 11 3 C8.1796875 3.51171875 8.1796875 3.51171875 4.875 3.6875 C3.23144531 3.78611328 3.23144531 3.78611328 1.5546875 3.88671875 C0.71164063 3.92410156 -0.13140625 3.96148437 -1 4 C-1.33 3.34 -1.66 2.68 -2 2 C-1.34 2 -0.68 2 0 2 C0 1.34 0 0.68 0 0 Z " fill="#1569A8" transform="translate(169,160)"/>
<path d="M0 0 C0.99 0.99 1.98 1.98 3 3 C2.34 4.32 1.68 5.64 1 7 C0.67 6.67 0.34 6.34 0 6 C-0.66 6.66 -1.32 7.32 -2 8 C-2.66 6.68 -3.32 5.36 -4 4 C-2.68 2.68 -1.36 1.36 0 0 Z " fill="#1560A1" transform="translate(205,104)"/>
<path d="M0 0 C0.33 0 0.66 0 1 0 C1 3.96 1 7.92 1 12 C0.34 12 -0.32 12 -1 12 C-1.33 13.65 -1.66 15.3 -2 17 C-2.33 17 -2.66 17 -3 17 C-3.33 15.02 -3.66 13.04 -4 11 C-3.34 10.67 -2.68 10.34 -2 10 C-1.31068656 7.65092125 -1.31068656 7.65092125 -0.875 4.9375 C-0.70742188 4.01839844 -0.53984375 3.09929687 -0.3671875 2.15234375 C-0.24601562 1.44207031 -0.12484375 0.73179688 0 0 Z " fill="#1E4A80" transform="translate(261,62)"/>
<path d="M0 0 C4 5 4 5 8 10 C7.67 10.66 7.34 11.32 7 12 C6.401875 11.54625 5.80375 11.0925 5.1875 10.625 C3.49409348 9.36704087 1.75522914 8.17015276 0 7 C-0.1875 3.375 -0.1875 3.375 0 0 Z " fill="#1AA4D5" transform="translate(90,396)"/>
<path d="M0 0 C1.32 0 2.64 0 4 0 C4 0.66 4 1.32 4 2 C1.90049414 2.86555948 -0.2047907 3.71711277 -2.3125 4.5625 C-4.07013672 5.27599609 -4.07013672 5.27599609 -5.86328125 6.00390625 C-9 7 -9 7 -12 6 C-10.3767313 5.3291288 -8.75132422 4.66342971 -7.125 4 C-6.22007812 3.62875 -5.31515625 3.2575 -4.3828125 2.875 C-2 2 -2 2 0 2 C0 1.34 0 0.68 0 0 Z " fill="#205589" transform="translate(219,204)"/>
<path d="M0 0 C0.99 0.33 1.98 0.66 3 1 C-0.38168431 4.68006822 -3.42521756 6.9785845 -8 9 C-6.86280581 5.58841744 -5.95657056 4.88145399 -3 3 C-2.34 3 -1.68 3 -1 3 C-0.67 2.01 -0.34 1.02 0 0 Z " fill="#134C8F" transform="translate(283,409)"/>
<path d="M0 0 C-2.28779038 1.03040167 -4.57951136 2.04952018 -6.875 3.0625 C-7.85146484 3.50432617 -7.85146484 3.50432617 -8.84765625 3.95507812 C-10.54010541 4.69661513 -12.26868575 5.35439001 -14 6 C-14.66 5.67 -15.32 5.34 -16 5 C-15.030625 4.54625 -14.06125 4.0925 -13.0625 3.625 C-9.92920418 2.34213779 -9.92920418 2.34213779 -9 0 C-5.44307323 -0.85056945 -3.50729422 -1.16909807 0 0 Z " fill="#298CC1" transform="translate(250,335)"/>
<path d="M0 0 C1.4540625 0.61875 1.4540625 0.61875 2.9375 1.25 C3.2675 2.24 3.5975 3.23 3.9375 4.25 C3.2775 4.25 2.6175 4.25 1.9375 4.25 C1.9375 3.59 1.9375 2.93 1.9375 2.25 C-0.0425 2.91 -2.0225 3.57 -4.0625 4.25 C-4.3925 2.93 -4.7225 1.61 -5.0625 0.25 C-3.0625 -0.75 -3.0625 -0.75 0 0 Z " fill="#1A619D" transform="translate(205.0625,131.75)"/>
<path d="M0 0 C0.33 0 0.66 0 1 0 C0.07692308 8 0.07692308 8 -2 11 C-2.99 11.33 -3.98 11.66 -5 12 C-4.54738642 10.56068883 -4.08767021 9.12361001 -3.625 7.6875 C-3.24214844 6.48673828 -3.24214844 6.48673828 -2.8515625 5.26171875 C-2 3 -2 3 0 0 Z " fill="#215186" transform="translate(230,64)"/>
<path d="M0 0 C-3.96 3.465 -3.96 3.465 -8 7 C-8.66 6.01 -9.32 5.02 -10 4 C-8.68 3.67 -7.36 3.34 -6 3 C-6 2.01 -6 1.02 -6 0 C-2.25 -1.125 -2.25 -1.125 0 0 Z " fill="#2772AB" transform="translate(321,396)"/>
<path d="M0 0 C0.66 0 1.32 0 2 0 C1.67 2.31 1.34 4.62 1 7 C-3.75 8.125 -3.75 8.125 -6 7 C-5.195625 6.5875 -4.39125 6.175 -3.5625 5.75 C-0.85890282 4.26547669 -0.85890282 4.26547669 -0.1875 1.8125 C-0.125625 1.214375 -0.06375 0.61625 0 0 Z " fill="#145A9A" transform="translate(222,88)"/>
<path d="M0 0 C0.66 0 1.32 0 2 0 C0.54955729 4.10958767 -1.51110752 7.43258745 -4 11 C-5 8 -5 8 -5 6 C-4.34 6 -3.68 6 -3 6 C-2.690625 5.38125 -2.38125 4.7625 -2.0625 4.125 C-1.375 2.75 -0.6875 1.375 0 0 Z " fill="#23376D" transform="translate(314,262)"/>
<path d="M0 0 C2.64 0 5.28 0 8 0 C1.60869565 4.26086957 1.60869565 4.26086957 -2.3125 3.625 C-2.869375 3.41875 -3.42625 3.2125 -4 3 C-2.68 2.67 -1.36 2.34 0 2 C0 1.34 0 0.68 0 0 Z " fill="#2291CA" transform="translate(233,449)"/>
<path d="M0 0 C0 0.99 0 1.98 0 3 C-7.5 5.125 -7.5 5.125 -12 4 C-8.04 2.68 -4.08 1.36 0 0 Z " fill="#205387" transform="translate(240,384)"/>
<path d="M0 0 C0.33 0.66 0.66 1.32 1 2 C-0.98 4.97 -0.98 4.97 -3 8 C-3.66 7.67 -4.32 7.34 -5 7 C-5.625 4.9375 -5.625 4.9375 -6 3 C-5.34 3 -4.68 3 -4 3 C-3.67 2.34 -3.34 1.68 -3 1 C-2.01 0.67 -1.02 0.34 0 0 Z " fill="#1A4F86" transform="translate(238,191)"/>
<path d="M0 0 C0.66 0.33 1.32 0.66 2 1 C2 2.65 2 4.3 2 6 C0.35 6 -1.3 6 -3 6 C-2.625 3.5625 -2.625 3.5625 -2 1 C-1.34 0.67 -0.68 0.34 0 0 Z " fill="#155F9E" transform="translate(203,145)"/>
<path d="M0 0 C-1.12073862 0.83905565 -2.24674547 1.67107831 -3.375 2.5 C-4.00148437 2.9640625 -4.62796875 3.428125 -5.2734375 3.90625 C-7 5 -7 5 -9 5 C-9 4.01 -9 3.02 -9 2 C-5.62638617 -0.62392187 -4.03085709 -1.27471549 0 0 Z " fill="#225889" transform="translate(214,145)"/>
<path d="M0 0 C1.32 0.66 2.64 1.32 4 2 C2.54550599 3.0055761 1.08627557 4.00430435 -0.375 5 C-1.59316406 5.8353125 -1.59316406 5.8353125 -2.8359375 6.6875 C-5 8 -5 8 -7 8 C-6.67 7.01 -6.34 6.02 -6 5 C-2.9375 3.8125 -2.9375 3.8125 0 3 C0 2.01 0 1.02 0 0 Z " fill="#2B649C" transform="translate(338,380)"/>
<path d="M0 0 C0.99 0.33 1.98 0.66 3 1 C2.34 2.65 1.68 4.3 1 6 C-0.65 6 -2.3 6 -4 6 C-4 5.34 -4 4.68 -4 4 C-2.68 3.67 -1.36 3.34 0 3 C0 2.01 0 1.02 0 0 Z " fill="#04A3E2" transform="translate(190,454)"/>
<path d="M0 0 C1.65 0.33 3.3 0.66 5 1 C4.67 2.65 4.34 4.3 4 6 C3.67 5.34 3.34 4.68 3 4 C1.68 4.33 0.36 4.66 -1 5 C-0.67 3.35 -0.34 1.7 0 0 Z " fill="#05B0F3" transform="translate(106,344)"/>
<path d="M0 0 C0.33 1.32 0.66 2.64 1 4 C0.01 4.33 -0.98 4.66 -2 5 C-2.33 5.99 -2.66 6.98 -3 8 C-3.33 8 -3.66 8 -4 8 C-4 6.35 -4 4.7 -4 3 C-3.34 3 -2.68 3 -2 3 C-2 2.34 -2 1.68 -2 1 C-1.34 0.67 -0.68 0.34 0 0 Z " fill="#1361A4" transform="translate(202,121)"/>
<path d="M0 0 C0.598125 0.20625 1.19625 0.4125 1.8125 0.625 C1.4825 2.275 1.1525 3.925 0.8125 5.625 C0.19375 5.150625 -0.425 4.67625 -1.0625 4.1875 C-3.09455546 2.60082559 -3.09455546 2.60082559 -5.1875 1.625 C-2.1875 -0.375 -2.1875 -0.375 0 0 Z " fill="#1F3D7C" transform="translate(302.1875,96.375)"/>
<path d="M0 0 C3 1 3 1 5 3 C2 5 2 5 -2 5 C-1.34 3.35 -0.68 1.7 0 0 Z " fill="#1A88C2" transform="translate(261,435)"/>
<path d="M0 0 C3.3 0.33 6.6 0.66 10 1 C8.68 1.33 7.36 1.66 6 2 C6 2.66 6 3.32 6 4 C3.83125748 3.49396008 2.00032373 3.00016187 0 2 C0 1.34 0 0.68 0 0 Z " fill="#2C6FA5" transform="translate(144,413)"/>
<path d="M0 0 C2.125 0.375 2.125 0.375 4 1 C2.8803014 2.00593243 1.7540588 3.0045849 0.625 4 C-0.00148438 4.556875 -0.62796875 5.11375 -1.2734375 5.6875 C-3 7 -3 7 -5 7 C-5 6.34 -5 5.68 -5 5 C-4.34 5 -3.68 5 -3 5 C-2.67 4.01 -2.34 3.02 -2 2 C-1.34 1.34 -0.68 0.68 0 0 Z " fill="#134A8F" transform="translate(301,394)"/>
<path d="M0 0 C1.4540625 0.0309375 1.4540625 0.0309375 2.9375 0.0625 C0.89930154 2.10069846 -0.35667798 2.74091059 -3 3.75 C-3.68964844 4.02199219 -4.37929687 4.29398437 -5.08984375 4.57421875 C-7.0625 5.0625 -7.0625 5.0625 -10.0625 4.0625 C-9.093125 3.588125 -8.12375 3.11375 -7.125 2.625 C-2.0625 0.04209184 -2.0625 0.04209184 0 0 Z " fill="#234B7C" transform="translate(257.0625,378.9375)"/>
<path d="M0 0 C0.33 0.99 0.66 1.98 1 3 C-2.3 3 -5.6 3 -9 3 C-9 2.34 -9 1.68 -9 1 C-5.92677456 0.08941469 -3.19902639 -0.08886184 0 0 Z " fill="#1F3779" transform="translate(324,332)"/>
<path d="M0 0 C1.0828125 0.37125 1.0828125 0.37125 2.1875 0.75 C-0.07435454 3.01185454 -1.78233561 3.78921617 -4.8125 4.75 C-5.8025 4.42 -6.7925 4.09 -7.8125 3.75 C-3.50480769 -0.31153846 -3.50480769 -0.31153846 0 0 Z " fill="#2E719A" transform="translate(142.8125,232.25)"/>
<path d="M0 0 C1.65 0 3.3 0 5 0 C5.33 1.32 5.66 2.64 6 4 C4.35 4.33 2.7 4.66 1 5 C0.67 3.35 0.34 1.7 0 0 Z " fill="#1A8FCB" transform="translate(240,444)"/>
<path d="M0 0 C0.99 0 1.98 0 3 0 C3 0.99 3 1.98 3 3 C-1.22222222 6 -1.22222222 6 -4 6 C-4.33 5.01 -4.66 4.02 -5 3 C-3.68 3 -2.36 3 -1 3 C-0.67 2.01 -0.34 1.02 0 0 Z " fill="#2381B8" transform="translate(278,426)"/>
<path d="M0 0 C0.66 0 1.32 0 2 0 C2.66 0.66 3.32 1.32 4 2 C4.66 1.67 5.32 1.34 6 1 C6.33 1.99 6.66 2.98 7 4 C6.34 4 5.68 4 5 4 C4.67 5.32 4.34 6.64 4 8 C2.68 5.36 1.36 2.72 0 0 Z " fill="#17A8E3" transform="translate(82,403)"/>
<path d="M0 0 C1.65 1.32 3.3 2.64 5 4 C4.67 4.66 4.34 5.32 4 6 C2.68 6 1.36 6 0 6 C0 4.02 0 2.04 0 0 Z " fill="#28336B" transform="translate(400,336)"/>
<path d="M0 0 C2.64 0.33 5.28 0.66 8 1 C5.4345406 3.5654594 3.52313332 3.54046087 0 4 C0 2.68 0 1.36 0 0 Z " fill="#2189C0" transform="translate(250,330)"/>
<path d="M0 0 C0.66 0.33 1.32 0.66 2 1 C0.87926138 1.83905565 -0.24674547 2.67107831 -1.375 3.5 C-2.00148437 3.9640625 -2.62796875 4.428125 -3.2734375 4.90625 C-5 6 -5 6 -7 6 C-7 5.01 -7 4.02 -7 3 C-4.69631264 1.93347808 -2.35981813 0.93578995 0 0 Z " fill="#245181" transform="translate(231,199)"/>
<path d="M0 0 C0.66 0.33 1.32 0.66 2 1 C0.02 3.31 -1.96 5.62 -4 8 C-4.99 7.67 -5.98 7.34 -7 7 C-4.69 4.69 -2.38 2.38 0 0 Z " fill="#234C7C" transform="translate(246,44)"/>
<path d="M0 0 C3.36591866 1.44253657 5.51047079 3.33264727 8 6 C5.69 5.34 3.38 4.68 1 4 C0.67 2.68 0.34 1.36 0 0 Z " fill="#1D7AAF" transform="translate(108,418)"/>
<path d="M0 0 C0.99 0.66 1.98 1.32 3 2 C-0.08888522 4.05925681 -0.70935927 4.2390374 -4.1875 4.125 C-6.0746875 4.063125 -6.0746875 4.063125 -8 4 C-5.28790442 2.19193628 -3.10633303 0.93189991 0 0 Z " fill="#235586" transform="translate(229,404)"/>
<path d="M0 0 C0 3 0 3 -1.1875 4.5625 C-3.32699313 6.25933938 -5.43483454 7.09872565 -8 8 C-5.33333333 5.33333333 -2.66666667 2.66666667 0 0 Z " fill="#1F3F72" transform="translate(277,373)"/>
<path d="M0 0 C-0.66 0.66 -1.32 1.32 -2 2 C-2.99 2 -3.98 2 -5 2 C-5 2.66 -5 3.32 -5 4 C-5.99 3.67 -6.98 3.34 -8 3 C-8 2.34 -8 1.68 -8 1 C-3.375 -1.125 -3.375 -1.125 0 0 Z " fill="#265394" transform="translate(363,362)"/>
<path d="M0 0 C0.66 0.66 1.32 1.32 2 2 C1.67 2.99 1.34 3.98 1 5 C-1.5625 6.1875 -1.5625 6.1875 -4 7 C-2.68 4.69 -1.36 2.38 0 0 Z " fill="#28426B" transform="translate(286,293)"/>
<path d="M0 0 C0 3.10551666 -0.5393715 4.35261084 -2 7 C-3.65 7 -5.3 7 -7 7 C-4.66666667 4.66666667 -2.33333333 2.33333333 0 0 Z " fill="#215788" transform="translate(221,192)"/>
<path d="M0 0 C3.79588866 0.54226981 5.47211993 2.20127563 8 5 C7.67 5.99 7.34 6.98 7 8 C5.83035398 6.8572081 4.66435444 5.71068285 3.5 4.5625 C2.8503125 3.92441406 2.200625 3.28632813 1.53125 2.62890625 C0 1 0 1 0 0 Z " fill="#263664" transform="translate(320,152)"/>
<path d="M0 0 C3.375 0.25 3.375 0.25 7 1 C8.4375 3.0625 8.4375 3.0625 9 5 C5.22454612 3.90931332 2.52956528 3.0916909 0 0 Z " fill="#2BA7D9" transform="translate(124,446)"/>
<path d="M0 0 C1.32 0.33 2.64 0.66 4 1 C1.03 3.475 1.03 3.475 -2 6 C-2.66 5.01 -3.32 4.02 -4 3 C-3.01 3 -2.02 3 -1 3 C-0.67 2.01 -0.34 1.02 0 0 Z " fill="#2776AF" transform="translate(301,409)"/>
<path d="M0 0 C0 0.66 0 1.32 0 2 C-3.37097383 3.49821059 -5.20442119 4 -9 4 C-9 3.34 -9 2.68 -9 2 C-2.25 0 -2.25 0 0 0 Z " fill="#22A0DA" transform="translate(181,353)"/>
<path d="M0 0 C1.65 0.99 3.3 1.98 5 3 C4.67 3.66 4.34 4.32 4 5 C2.35 5 0.7 5 -1 5 C-0.67 3.35 -0.34 1.7 0 0 Z " fill="#273671" transform="translate(394,331)"/>
<path d="M0 0 C-1 3 -1 3 -3 4 C-4.99960012 4.039992 -7.00047242 4.04346799 -9 4 C-3 0 -3 0 0 0 Z " fill="#1C93CB" transform="translate(231,331)"/>
<path d="M0 0 C2.31 0 4.62 0 7 0 C7.33 0.66 7.66 1.32 8 2 C6.02 2.33 4.04 2.66 2 3 C1.34 2.01 0.68 1.02 0 0 Z " fill="#1C66AB" transform="translate(336,309)"/>
<path d="M0 0 C0.66 0 1.32 0 2 0 C2.99 2.97 3.98 5.94 5 9 C3 8 3 8 2 5 C1.34 4.67 0.68 4.34 0 4 C0 2.68 0 1.36 0 0 Z " fill="#2A3A61" transform="translate(305,216)"/>
<path d="M0 0 C2.2477975 2.05233685 3.0022242 3.00667261 4 6 C2.02 5.34 0.04 4.68 -2 4 C-2 3.01 -2 2.02 -2 1 C-1.34 0.67 -0.68 0.34 0 0 Z " fill="#1F4178" transform="translate(285,120)"/>
</svg>
